<?xml version="1.0" standalone="no"?>
<!DOCTYPE svg PUBLIC "-//W3C//DTD SVG 1.1//EN" "http://www.w3.org/Graphics/SVG/1.1/DTD/svg11.dtd" >
<svg xmlns="http://www.w3.org/2000/svg">
<metadata>
This is a custom SVG webfont generated by Font Squirrel.
Copyright   : c1991 The Font Bureau Inc Designer Tobias FrereJones
</metadata>
<defs>
<font id="webfontoCry3zEf" horiz-adv-x="396" >
<font-face units-per-em="1000" ascent="800" descent="-200" />
<missing-glyph horiz-adv-x="200" />
<glyph horiz-adv-x="374" d="M50 307q0 6 -21 6q-7 0 -16 4.5t-7 14.5q3 13 0 43q-1 9 6.5 12t24.5 3q13 0 13 5v274q0 20 4 25q5 6 26 6h102q74 0 118 -41q41 -38 41 -110v-397q0 -65 -43 -109q-42 -43 -115 -43h-104q-21 0 -25 7q-4 5 -4 24v276zM157 390q0 -4 19.5 -5t19.5 -4q0 -41 -1 -53 q-2 -16 -19 -16q-19 0 -19 -5v-180q0 -16 4 -20q2 -2 23 -2q24 0 38 18q11 16 11 49v356q0 39 -13 55q-12 12 -33 12q-24 0 -27 -4t-3 -14v-187z" />
<glyph horiz-adv-x="345" d="M215 525q0 4 -32 4q-7 0 -16 4.5t-7 14.5q3 13 0 43q-1 9 6.5 12t24.5 3q24 0 24 3v83q0 6 9.5 7t41.5 1h10q24 0 31.5 -1t7.5 -7v-83q0 -3 5 -3q48 2 48 -16q0 -35 3 -46q2 -7 -1.5 -11.5t-17.5 -4.5q-37 0 -37 -5v-515q0 -6 -6.5 -7t-25.5 -1h-14q-44 0 -47 1 q-5 3 -5 12q0 18 -4 18q-2 0 -4 -2q-29 -29 -60 -29q-57 0 -90.5 36t-33.5 106v195q0 70 35 107t89 37q10 0 27.5 -6.5t27.5 -15.5q10 -7 11 14v52zM210 173v138q0 66 -40 66t-40 -66v-138q0 -67 40 -67t40 67z" />
<glyph horiz-adv-x="328" d="M177 357v-220q0 -31 6 -35q7 -4 27 -4h89q10 0 12 -7.5t2 -39.5q0 -36 -2 -43.5t-11 -7.5h-192q-28 0 -33 6t-5 35v237q0 3 -20 -13q-5 -4 -9 -8q-8 -7 -16.5 0t-24.5 31q-16 23 -18 32t5 14q8 6 21 17q43 35 52.5 44t9.5 16v273q0 11 8.5 13.5t41.5 2.5q39 0 48 -2.5 t9 -14.5v-196q0 -6 12.5 3.5t61.5 50.5q17 14 42 -18q32 -40 6 -61q-118 -97 -120 -101q-2 -2 -2 -4z" />
<glyph horiz-adv-x="257" d="M181 364v-348q0 -11 -8 -13.5t-48 -2.5q-36 0 -43 2t-7 12v256q0 9 -30 -20q-8 -8 -14 -1.5t-24 34.5q-16 25 -18.5 31.5t3.5 14.5q83 69 83 76v278q0 11 8 13.5t42 2.5q38 0 47 -2.5t9 -14.5v-184q0 -7 27 14l16 13q9 5 13.5 1.5t19.5 -28.5q23 -37 21 -44q-1 -4 -5 -7 q-92 -80 -92 -83z" />
<glyph horiz-adv-x="340" d="M19 538q0 53 25 97q37 65 117 65q62 0 102 -40t40 -96v-49q0 -6 -48 -6q-58 0 -58 7v46q0 20 -11 32.5t-25 12.5q-13 0 -22.5 -9.5t-11.5 -22.5q-3 -23 -3 -40q0 -39 30 -83.5t65.5 -80.5t65.5 -89.5t30 -108.5q0 -61 -16 -90q-27 -48 -52 -65.5t-77 -17.5 q-64 0 -104.5 37t-40.5 103v56q0 7 9 8.5t40 1.5q59 0 59 -8v-42q0 -30 8 -44.5t29 -14.5q32 0 36 37q2 34 2 46q0 28 -29.5 71.5t-65 83.5t-65 96t-29.5 107zM282 815q0 -5 -5 -9.5t-19 -15.5t-21 -17q-60 -52 -71 -52q-4 0 -9.5 2.5t-13 8l-13.5 10t-16.5 13.5t-16.5 13 q-6 5 -14.5 11.5l-14 10.5t-10.5 8.5t-7 7.5t-2 5q-1 6 9 24t11 21q5 23 24 5q66 -63 73 -63t73 64q11 9 16.5 6t7.5 -11q1 -3 10 -19.5t9 -22.5z" />
<glyph horiz-adv-x="318" d="M23 351q0 51 37 90t97 39q58 0 96 -41.5t38 -99.5q0 -5 -48 -5q-53 0 -53 7q0 24 -10 37.5t-25 13.5q-35 0 -35 -43q0 -18 18.5 -32.5t44.5 -28t52 -31.5t44.5 -51t18.5 -79q0 -51 -41 -89t-98 -38q-59 0 -99 38.5t-40 101.5q0 5 8 6t38 1q52 0 52 -5q0 -50 39 -50t39 43 q0 24 -18 40.5t-43 27.5t-50.5 26t-43.5 45.5t-18 76.5zM274 606q0 -5 -5 -9.5t-19 -15.5t-21 -17q-60 -52 -71 -52q-4 0 -9.5 2.5t-13 8l-13.5 10t-16.5 13.5t-16.5 13q-6 5 -14.5 11.5l-14 10.5t-10.5 8.5t-7 7.5t-2 5q-1 6 9 24t11 21q5 23 24 5q66 -63 73 -63t73 64 q11 9 16.5 6t7.5 -11q1 -3 10 -19.5t9 -22.5z" />
<glyph horiz-adv-x="318" d="M107 243q0 33 -3 49q-1 6 -3 15.5t-5.5 23l-5.5 21.5q-52 225 -75 333q-1 5 3 8t12 4t15 1.5t15 0.5q59 0 61 -16l34 -246q0 -9 6 -9q5 0 5 10q7 51 17.5 134.5t14.5 110.5q2 16 56 16q12 0 19.5 -0.5t15.5 -1.5t11.5 -4t2.5 -8q-47 -220 -72 -327q-2 -9 -4 -20l-4 -22.5 t-3 -16.5q-6 -27 -6 -53v-238q0 -8 -55 -8q-53 0 -53 11q0 39 0.5 113t0.5 119zM106 813q41 16 98 43q29 13 34 0q17 -38 18 -39q10 -14 -13 -28l-56.5 -25l-76.5 -35q-21 -9 -23 7q-4 18 -16 43q-4 7 6 16.5t29 17.5z" />
<glyph horiz-adv-x="329" d="M107 36q0 16 -3 31l-94 402q-1 4 3 6t12.5 3t16.5 1.5t20 0.5q51 0 53 -14q8 -52 22 -131.5t21 -124.5q0 -10 6 -10q4 0 7 11q35 194 45 257q2 12 55 12q52 0 48 -14l-161 -653q-3 -13 -48 -13q-10 0 -16.5 0.5t-14.5 2t-11.5 5t-2.5 8.5l39 187q3 13 3 33zM106 623 q41 16 98 43q29 13 34 0q17 -38 18 -39q10 -14 -13 -28l-56.5 -25l-76.5 -35q-21 -9 -23 7q-4 18 -16 43q-4 7 6 16.5t29 17.5z" />
<glyph horiz-adv-x="356" d="M331 293q0 -70 -50 -116q-41 -37 -112 -37q-22 0 -22 -31v-93q0 -12 -9 -14t-47 -2q-35 0 -43 3t-8 19v647q0 19 5 25q4 6 25 6h62q15 0 15 -59q0 -46 4 -56t21 -10q68 0 110 -35q49 -40 49 -116v-131zM223 403q0 39 -13 55q-12 12 -33 12q-23 0 -27 -4q-3 -4 -3 -14 v-190q0 -18 6 -21q5 -1 22 -1q22 0 36 16q12 16 12 51v96z" />
<glyph horiz-adv-x="346" d="M141 21q-10 5 -11 -14v-199q0 -7 -5 -7.5t-45 -0.5q-34 0 -42 1.5t-8 7.5v883q0 9 47 9q53 0 53 -9v-219q0 -21 8 -16q2 1 3 2q10 9 27.5 15.5t27.5 6.5q55 0 90 -37t35 -107v-195q0 -70 -34.5 -106t-91.5 -36q-9 0 -27 6t-27 15zM215 173v138q0 66 -40 66t-40 -66v-138 q0 -67 40 -67q24 0 32 17t8 50z" />
<glyph horiz-adv-x="300" d="M132 135q-3 -12 0 -28q3 -8 16 -8h116q11 0 11 -53q0 -46 -11 -46h-226q-13 0 -13 26q0 108 3 116l139 429q8 23 -7 34q-5 2 -21 2h-96q-12 0 -12 44q0 49 12 49h216q13 0 16 -4t3 -24q0 -72 -3 -81zM270 816q0 -5 -5 -9.5t-19 -15.5t-21 -17q-60 -52 -71 -52 q-4 0 -9.5 2.5t-13 8l-13.5 10t-16.5 13.5t-16.5 13q-6 5 -14.5 11.5l-14 10.5t-10.5 8.5t-7 7.5t-2 5q-1 6 9 24t11 21q5 23 24 5q66 -63 73 -63t73 64q11 9 16.5 6t7.5 -11q1 -3 10 -19.5t9 -22.5z" />
<glyph horiz-adv-x="296" d="M133 120q-3 -5 -1 -15.5t6 -12.5q5 -3 30 -3h98q15 0 15 -48q0 -34 -6 -39q-4 -2 -9 -2h-228q-12 0 -15 12.5t-3 42.5q0 57 2 60l135 238q4 8 2 20t-9 17q-5 2 -21 2h-85q-16 0 -16 39q0 49 13 49h216q15 0 18 -8.5t3 -38.5q0 -52 -5 -61zM269 606q0 -5 -5 -9.5 t-19 -15.5t-21 -17q-60 -52 -71 -52q-4 0 -9.5 2.5t-13 8l-13.5 10t-16.5 13.5t-16.5 13q-6 5 -14.5 11.5l-14 10.5t-10.5 8.5t-7 7.5t-2 5q-1 6 9 24t11 21q5 23 24 5q66 -63 73 -63t73 64q11 9 16.5 6t7.5 -11q1 -3 10 -19.5t9 -22.5z" />
<glyph unicode=" " horiz-adv-x="200" d="M-3 0z" />
<glyph unicode="!" horiz-adv-x="177" d="M142 207q0 -12 -8.5 -15t-47.5 -3q-36 0 -43.5 2.5t-7.5 13.5v477q0 12 8 15t43 3q40 0 48 -2.5t8 -16.5v-474zM30 53q-3 29 15.5 52.5t44.5 19.5q30 -3 43.5 -12.5t13.5 -23.5v-32q-2 -25 -17.5 -42t-39.5 -18q-33 -2 -45 13t-15 43z" />
<glyph unicode="&#x22;" horiz-adv-x="240" d="M41 699q17 3 46 3q6 0 8 -0.5t5 -5t3 -13.5q0 -36 -0.5 -67t-0.5 -57q0 -7 -4.5 -16t-14.5 -7q-13 3 -43 0q-9 -1 -12 6.5t-3 24.5v86q-2 43 16 46zM154 699q35 0 46 3q7 2 11.5 -1.5t4.5 -17.5q0 -36 -0.5 -67t-0.5 -57q0 -7 -4.5 -16t-14.5 -7q-13 3 -43 0 q-9 -1 -12 6.5t-3 24.5v86q-2 46 16 46z" />
<glyph unicode="#" horiz-adv-x="482" d="M328 225q-2 -7 -32 -6t-32 9q0 7 5.5 33t11 48.5t3.5 25.5q-3 6 -67 6.5t-69 -6.5q-3 -2 -6 -20t-7.5 -42t-10.5 -38q-3 -8 -33 -8.5t-30 8.5q-1 13 3.5 37t9 42.5t2.5 20.5q-3 5 -11 5.5t-19.5 -0.5t-28.5 3q-9 1 -8 26t10 28q13 3 37 0t26 4q7 4 22 76t11 78 q-4 4 -17 4.5t-28 -0.5t-33 3q-9 2 -8.5 25.5t9.5 27.5q15 4 47.5 1.5t35.5 2.5q8 6 21 82q2 8 33.5 7.5t31.5 -9.5q-1 -9 -5.5 -31.5t-5.5 -31.5t1 -17q6 -6 66 -5.5t66 5.5q4 2 6 14t4.5 33.5t5.5 34.5q1 8 31 7.5t30 -9.5q1 -11 -1.5 -31.5t-5 -35t-0.5 -15.5q6 -6 61 -2 q7 0 11 -23.5t-3 -25.5q-11 -2 -29.5 -2.5t-30.5 -2t-16 -5.5q-5 -4 -17.5 -77.5t-9.5 -80.5q0 -1 4.5 -2t12.5 -0.5t16.5 0.5t20.5 0.5t21 0.5q5 0 9 -12t3.5 -23t-4.5 -13q-12 -3 -34 -4.5l-38 -2.5t-19 -3q-4 -3 -8 -24l-9.5 -48.5t-11.5 -41.5zM321 556q-2 7 -67.5 7 t-70.5 -7q-5 -4 -18 -79t-9 -80q3 -6 66.5 -6t68.5 6q5 7 18 80t12 79z" />
<glyph unicode="$" horiz-adv-x="340" d="M111 10q-38 11 -62 46t-24 84v53q0 9 9 11t42 2q35 0 46.5 -1.5t11.5 -9.5v-39q0 -30 8 -44.5t29 -14.5q38 0 38 52q0 21 -2 49q-3 21 -15 44.5t-19.5 34t-34 40.5t-30.5 35q-40 47 -59.5 83.5t-20.5 78.5q-1 14 -1 50q0 42 22 76.5t62 49.5q6 2 6 15v55q0 11 50 11 q56 0 56 -8v-61q0 -11 7 -15q38 -16 58.5 -49.5t20.5 -73.5v-47q0 -8 -48 -8q-58 0 -58 9v44q0 20 -10.5 32.5t-24.5 12.5q-16 0 -26 -13t-10 -31v-43q1 -28 18.5 -54.5t58.5 -69.5q31 -35 48 -56t35.5 -60.5t21.5 -79.5q2 -18 2 -60q0 -97 -87 -131q-5 -1 -5 -13v-50 q0 -13 -57 -13q-50 0 -50 13v48q0 14 -6 16z" />
<glyph unicode="%" horiz-adv-x="390" d="M103 16q-6 -16 -41 -16q-8 0 -13.5 0.5t-11 2t-7.5 5t0 8.5l245 667q4 16 35 16q17 0 28.5 -4.5t8.5 -14.5zM360 72q0 -31 -20.5 -51.5t-52.5 -20.5q-31 0 -51.5 21t-20.5 51v107q0 30 20.5 50.5t51.5 20.5q32 0 52.5 -20t20.5 -51v-107zM174 522q0 -32 -20.5 -52.5 t-52.5 -20.5q-31 0 -52 21t-21 52v106q0 31 21 51.5t52 20.5q32 0 52.5 -20t20.5 -52v-106zM304 169q0 27 -17 27q-16 0 -16 -27v-86q0 -27 16 -27q17 0 17 27v86zM117 618q0 27 -16 27q-17 0 -17 -27v-85q0 -27 17 -27q16 0 16 27v85z" />
<glyph unicode="&#x26;" horiz-adv-x="416" d="M273 234q4 6 4 38q0 13 -0.5 23t-0.5 15q0 8 41 8q51 0 51 -6v-28q0 -53 -8 -95q-3 -15 -13.5 -40t-10.5 -27t29 -60q27 -58 26 -59q-3 -3 -69 -3q-26 0 -30 2t-8 12l-3 9q-4 12 -6.5 15t-6.5 2q-3 -2 -14.5 -11.5t-19.5 -14t-26 -9.5t-41 -5q-47 0 -90.5 34t-43.5 106 q0 127 62 212q3 7 1 14q-12 23 -20 45t-11 29q-22 50 -22 122q0 69 41.5 103.5t92.5 34.5q45 0 87.5 -35.5t42.5 -102.5q0 -66 -41 -135q-10 -18 -49 -70q-4 -9 -2 -14q21 -43 26 -56q10 -23 26 -51q3 -4 6 -2zM182 451q18 32 19 58q3 18 3 59q0 19 -9.5 31.5t-24.5 12.5 q-14 0 -24.5 -12.5t-11.5 -32.5q-2 -50 18 -113q5 -17 14 -17q8 0 16 14zM183 208q-15 34 -26 47q-7 3 -10 1q-13 -15 -18 -35q-6 -26 -6 -74q0 -15 12 -33t29 -18q23 0 35 9q10 8 16 15q4 9 3 15q-7 17 -19 40.5t-16 32.5z" />
<glyph unicode="'" horiz-adv-x="127" d="M41 699q35 0 46 3q7 2 11.5 -1.5t4.5 -17.5q0 -36 -0.5 -67t-0.5 -57q0 -7 -4.5 -16t-14.5 -7q-13 3 -43 0q-9 -1 -12 6.5t-3 24.5v86q-2 46 16 46z" />
<glyph unicode="(" horiz-adv-x="209" d="M134 65q0 -61 59 -61q5 0 5 -43q0 -49 -5 -49q-158 0 -158 148v581q0 147 158 147q6 0 6 -45t-6 -45q-28 0 -43.5 -16.5t-15.5 -43.5v-573z" />
<glyph unicode=")" horiz-adv-x="209" d="M174 60q0 -148 -158 -148q-5 0 -5 49q0 43 5 43q58 0 58 61v573q0 27 -15 43.5t-43 16.5q-6 0 -6 45q0 3 -0.5 10.5t0 12t0.5 10.5t1.5 9t4.5 3q158 0 158 -147v-581z" />
<glyph unicode="*" horiz-adv-x="357" d="M59 619q-9 7 -7 19.5t12.5 22.5t19.5 4q50 -30 57 -25q3 1 4 5t0.5 11t-1 13t-1.5 17t-2 17q0 8 18.5 11t37 -1t18.5 -12q-1 -10 -2.5 -21.5t-2 -18l-1 -13t1 -10t4.5 -4.5q4 -1 11 2.5t23 15l23 16.5t18 -8t14.5 -27t-2.5 -19q-65 -23 -65 -34q0 -14 63 -42 q8 -6 5.5 -17.5t-13.5 -21.5t-20 -5q-33 18 -44 22t-16 -1q-8 -6 -3 -52q0 -8 -16 -11.5t-32 0t-15 11.5q5 49 -5 58q-4 1 -6 1t-9 -3t-11.5 -6t-14 -8l-16.5 -9q-8 -4 -19.5 9t-14.5 27t4 19q7 2 19 6l19 6.5l15 5.5t11.5 6t3.5 6q0 4 -8.5 9.5t-27.5 15z" />
<glyph unicode="+" horiz-adv-x="245" d="M149 220q-2 -2 -2 -14t1 -29.5t1 -23.5q0 -4 -24.5 -6t-25.5 2q-3 7 -3.5 37.5t-2.5 33.5q-3 3 -16 3t-26.5 -1t-23.5 1q-4 1 -4 26t5 27q7 2 35.5 1t28.5 2q2 2 2 14v27.5t2 22.5q1 4 26 4t27 -5q2 -6 1.5 -22t-1 -26.5t1.5 -15.5q2 -2 59 -2q4 0 6 -24t-2 -26 q-6 -3 -34.5 -3t-30.5 -3z" />
<glyph unicode="," horiz-adv-x="159" d="M76 118q26 0 41.5 -15t16.5 -39q0 -40 -11 -68q-8 -21 -17.5 -39.5t-25.5 -36.5t-31 -15q-6 1 -7.5 7.5t0.5 17t5 20.5l6.5 21.5t4.5 16.5q2 8 0 12t-8.5 8t-8.5 5q-16 13 -16 40q0 29 13 47.5t38 17.5z" />
<glyph unicode="-" horiz-adv-x="226" d="M206 275q0 -35 3 -46q2 -7 -1.5 -11.5t-17.5 -4.5q-36 0 -78.5 0.5t-68.5 0.5q-7 0 -16 4.5t-7 14.5q3 13 0 43q-1 9 6.5 12t24.5 3h109q46 2 46 -16z" />
<glyph unicode="." horiz-adv-x="163" d="M25 56q-2 28 14 48.5t44 16.5q35 -3 45.5 -18.5t9.5 -44.5q0 -58 -55 -62q-30 -3 -44 15t-14 45z" />
<glyph unicode="/" horiz-adv-x="256" d="M119 16q-2 -16 -59 -16q-10 0 -15 0.5t-12.5 1.5t-10.5 4.5t-2 8.5l117 672q2 14 50 14q53 0 49 -20z" />
<glyph unicode="0" horiz-adv-x="357" d="M326 144q0 -70 -39 -107t-106 -37q-64 0 -104.5 39t-40.5 105v413q0 64 41 103.5t104 39.5q64 0 104.5 -39t40.5 -104v-413zM218 537q0 60 -37 60q-38 0 -38 -60v-371q0 -60 38 -60q37 0 37 60v371z" />
<glyph unicode="1" horiz-adv-x="306" d="M28 600q1 9 40 41q8 7 17.5 28.5t13.5 22.5q25 8 97 8q11 0 11 -30v-545q0 -23 3 -27q4 -5 17 -5h50q9 0 9 -48q0 -45 -11 -45h-241q-14 0 -14 44q0 49 16 49h42q15 0 18 2q5 3 5 30v413q0 24 -4 24q-5 0 -12 -4t-16.5 -12t-11.5 -9l-3.5 -3.5t-4.5 -4t-5 -4t-5 -3l-4 -1 t-3 1.5t-2 5q-7 46 -2 72z" />
<glyph unicode="2" horiz-adv-x="338" d="M139 111q5 -5 23 -5h136q15 0 15 -52q0 -54 -17 -54h-238q-19 0 -24 4q-3 2 -4.5 3.5t-2 4t-0.5 3.5v6v7v148q0 60 33 101l97 118q25 32 41 79q10 36 10 72q0 52 -38 52q-35 0 -35 -52v-35q0 -13 -55 -13q-49 0 -49 14v56q0 56 38 94t101 38q67 0 104.5 -36.5t37.5 -94.5 v-74q0 -73 -74 -161l-86 -102q-18 -23 -18 -51v-46q0 -19 5 -24z" />
<glyph unicode="3" horiz-adv-x="338" d="M306 580l-90 -157q-7 -10 4 -12q38 -6 56 -22q37 -32 37 -106v-143q0 -62 -41 -101t-104 -39q-62 0 -102.5 39.5t-40.5 100.5v57q0 20 52 20q58 0 58 -19v-37q0 -56 34 -56q18 0 26.5 16.5t8.5 39.5v125q0 46 -32 49h-18.5t-6.5 -3.5t-7 -5.5q-5 -1 -11 2t-16 11t-13 10 q-6 3 -18 16.5t-9 17.5l43.5 75.5l36.5 59.5l34 54q9 15 2 24q-3 5 -141 5q-13 0 -13 49q0 50 13 50h251q14 0 14 -29q0 -77 -7 -91z" />
<glyph unicode="4" horiz-adv-x="331" d="M285 689v-449q0 -12 2 -14q3 -3 23 -3q6 0 6 -53q0 -39 -6 -39q-16 0 -21 -4q-3 -3 -3 -12v-103q0 -12 -45 -12q-56 0 -56 13v90q0 16 -2 21q-3 5 -27 5h-122q-14 0 -16 4q-3 5 -3 23v87q0 18 2 31q2 10 8 28l132 377q5 14 16 18.5t45 4.5q41 0 54 -2.5t13 -10.5z M182 225q3 1 3 18q1 47 2 109t2 109q0 41 -4 41q-2 0 -3.5 -2t-3 -5.5t-2 -6.5t-1.5 -8t-2 -7q-5 -22 -39 -152q0 -2 -3.5 -12t-4.5 -17q-2 -14 -2 -17v-33q0 -11 5 -17q2 -3 22 -3q25 0 31 3z" />
<glyph unicode="5" horiz-adv-x="343" d="M60 700h238q17 0 17 -45q0 -51 -15 -51h-133q-17 0 -23 -7t-6 -21v-119v-7v-7.5v-7t1 -7t2.5 -5t4 -3.5t6.5 -1q2 0 17 6t40 6q50 0 82 -37q27 -31 27 -79v-92q0 -61 -32 -115q-30 -54 -106 -88q-36 -12 -83 -19.5t-61 0.5q-5 3 -5 48q0 39 4 43q6 6 15 7t28 2.5t41 8.5 q34 10 66 41q25 26 25 64v66q0 30 -7 44.5t-27 14.5q-23 0 -35 -19q-8 -11 -22 -15q-8 -3 -37.5 -3.5t-48.5 3.5q-3 1 -3 44v314q0 20 4 26q7 10 26 10z" />
<glyph unicode="6" horiz-adv-x="347" d="M33 154q0 61 0.5 153.5t0.5 160.5q0 42 9 72t35 65q28 40 89 67.5t142 28.5q6 0 6 -45q0 -44 -6 -44q-4 0 -17.5 -2t-17.5 -2.5t-15.5 -2.5t-16.5 -3t-14.5 -3.5t-14.5 -5l-12.5 -6.5t-13.5 -8.5t-11 -9.5q-37 -35 -37 -89v-54q0 -17 4 -19q2 -2 9 1t23 8t36 5 q38 0 66 -27q40 -37 40 -101v-139q0 -71 -37.5 -112.5t-103.5 -41.5q-69 0 -106 42.5t-37 111.5zM213 279q0 58 -38 58q-37 0 -37 -60v-103q0 -20 0.5 -29.5t4 -21t11.5 -16t22 -4.5q37 0 37 71v105z" />
<glyph unicode="7" horiz-adv-x="316" d="M117 605h-90q-12 0 -12 48q0 47 10 47h260q9 0 13 -6q3 -4 3 -26v-71q0 -6 -2.5 -14.5t-6.5 -16.5t-12.5 -26.5l-16.5 -36.5q-31 -80 -49 -161q-39 -180 -46 -288q-3 -45 -6 -47q-9 -7 -55 -7q-35 0 -41 5q-4 4 -2 52q9 140 43 298q17 82 63 206q9 26 -1 40q-3 4 -52 4z " />
<glyph unicode="8" horiz-adv-x="357" d="M33 456v111q0 58 42 95.5t103 37.5q63 0 104.5 -37t41.5 -97v-113q0 -26 -19 -53q-6 -8 -18 -16t-13 -9q2 -1 12 -9t16 -14q22 -31 22 -62v-142q0 -68 -40 -108t-106 -40q-63 0 -104 41t-41 107v153q0 28 15 51q8 12 32 25q-22 15 -30 26q-17 22 -17 53zM216 258 q0 57 -38 57t-38 -56v-96q0 -63 38 -63t38 63v95zM216 547q0 53 -38 53t-38 -54v-90q0 -57 38 -57t38 57v91z" />
<glyph unicode="9" horiz-adv-x="347" d="M314 551v-316q0 -48 -8.5 -78t-34.5 -64q-29 -38 -90 -65t-144 -29q-6 0 -6 47q0 48 6 48q4 1 20.5 2.5t21 2.5t17.5 3t18 3.5l15.5 4.5t16 6t13 8t13.5 11q28 25 33 55q2 9 2 27v53q0 20 -5 23q-2 1 -7.5 -3t-20.5 -9.5t-35 -5.5q-40 0 -71 32q-41 41 -41 96v148 q0 73 38 111t106 38q65 0 104 -39t39 -110zM134 421q0 -57 37 -57t37 59v108q0 35 -7.5 52.5t-30.5 17.5q-22 0 -29 -18.5t-7 -51.5v-110z" />
<glyph unicode=":" horiz-adv-x="158" d="M25 56q-1 27 14.5 46.5t41.5 15.5q33 -3 43 -17.5t9 -42.5q0 -54 -52 -59q-28 -2 -41.5 14.5t-14.5 42.5zM25 293q-1 27 14.5 46.5t41.5 15.5q33 -3 43 -17.5t9 -42.5q0 -55 -52 -59q-28 -3 -41.5 14t-14.5 43z" />
<glyph unicode=";" horiz-adv-x="158" d="M25 293q-1 27 14.5 46.5t41.5 15.5q33 -3 43 -17.5t9 -42.5q0 -55 -52 -59q-28 -3 -41.5 14t-14.5 43zM76 118q26 0 41.5 -15t16.5 -39q0 -40 -11 -68q-8 -21 -17.5 -39.5t-25.5 -36.5t-31 -15q-6 1 -7.5 7.5t0.5 17t5 20.5l6.5 21.5t4.5 16.5q2 8 0 12t-8.5 8t-8.5 5 q-16 13 -16 40q0 29 13 47.5t38 17.5z" />
<glyph unicode="&#x3c;" horiz-adv-x="271" d="M194 433q22 -12 42 -18q8 -2 10.5 -7.5t-5.5 -16.5l-48 -51l-61 -65t-23 -28t24 -29.5l57 -62t47 -52.5q15 -20 -5 -24q-5 -2 -21.5 -10t-21.5 -10q-3 -1 -85.5 89.5t-82.5 98.5t85 98t88 88z" />
<glyph unicode="=" horiz-adv-x="256" d="M183 357q9 0 24 -0.5t24 -0.5q4 0 6 -26t-2 -28q-6 -3 -37 -5q-49 -4 -130 -2q-29 0 -43 5q-6 2 -6 28t7 28q6 2 37 2q18 1 65.5 0t54.5 -1zM184 213q44 0 48 -1q4 -6 6 -29t-2 -25q-6 -3 -37 -5q-49 -4 -131 -2q-22 0 -43 5q-5 1 -4.5 27t5.5 29q7 3 12.5 3.5t13 -0.5 t11.5 -1q18 1 66 0t55 -1z" />
<glyph unicode="&#x3e;" horiz-adv-x="271" d="M250 247q0 -10 -78.5 -101t-84.5 -87q-37 19 -42 20q-22 5 -5 24q125 139 125 144q0 6 -135 144q-8 11 -5.5 16.5t10.5 7.5q15 5 42 18q6 4 89.5 -86.5t83.5 -99.5z" />
<glyph unicode="?" horiz-adv-x="330" d="M109 206q0 10 -1 38t0 39.5t5 31t13 36.5q10 19 35.5 51t33.5 50q11 29 11 96q0 52 -39 52q-34 0 -34 -52v-35q0 -13 -55 -13q-49 0 -49 14v56q0 56 38 94t101 38q66 0 104 -36.5t38 -94.5v-74q0 -46 -15 -77.5t-45 -66.5q-9 -10 -15.5 -19.5t-10 -21t-6 -18.5 t-3.5 -21.5t-1 -20v-24.5v-25q0 -16 -55 -14h-19.5t-14 1.5t-13 5.5t-3.5 10zM103 52q-3 28 15 50.5t43 18.5q29 -2 42 -11.5t13 -23.5v-31q-2 -24 -17 -41t-38 -18q-32 -2 -43.5 13t-14.5 43z" />
<glyph unicode="@" horiz-adv-x="554" d="M423 227q-26 0 -42 10.5t-21.5 20.5t-6.5 10l-3 -4q-2 -4 -6.5 -10t-12.5 -12.5t-23 -10.5t-35 -4q-51 0 -78.5 35t-27.5 71v58q0 40 29.5 73t76.5 33q9 0 17 -1.5t13 -3t10.5 -5t7.5 -5.5t6 -5.5t5 -4.5q7 -6 7 6q0 19 18 19q24 0 24 -5v-154q0 -28 12.5 -43t25.5 -15 q23 0 36 17.5t13 69.5q0 84 -54 136t-135 52q-79 0 -135 -55.5t-56 -135.5q0 -77 56 -132t135 -55h71q10 0 10 -23q0 -32 -7 -32h-76q-100 0 -171 71t-71 171t71 171t171 71q106 0 174 -63t68 -184q0 -45 -10 -74t-27.5 -40.5t-29.5 -14.5t-29 -3zM216 392v-59q0 -29 19 -43 t39 -14t39 14t19 43v59q0 24 -14.5 41.5t-43.5 17.5t-43.5 -19.5t-14.5 -39.5z" />
<glyph unicode="A" horiz-adv-x="333" d="M119 10q-1 -10 -48 -10h-7q-50 0 -49 9l96 677q2 15 52 15q52 0 54 -18l101 -673q1 -4 -2.5 -6t-12.5 -3t-15 -1h-19h-6q-41 0 -47 5q-2 3 -3 7q-4 27 -10 74t-10 75q0 2 -1 3.5t-2.5 2.5t-3 1.5t-4.5 0.5h-5h-6.5h-6.5h-8q-21 0 -22 -8q-10 -95 -15 -151zM143 252 q-1 -5 3.5 -6.5t16.5 -1.5h6h7t5 0.5t3 2t1 4.5q-10 154 -13 195q0 27 -9 27q-7 0 -7 -29q-2 -39 -6.5 -99.5t-6.5 -92.5z" />
<glyph unicode="B" horiz-adv-x="364" d="M331 152q0 -64 -41 -107q-42 -45 -117 -45h-97q-29 2 -30 5q-6 8 -6 30v634q0 21 6 26q5 5 24 5h99q76 0 119 -42q39 -39 39 -109v-85q0 -42 -19 -68q-8 -10 -19.5 -17t-19 -10.5t-7.5 -4.5t9 -3.5t22 -10.5t22 -20q16 -24 16 -62v-116zM220 528q0 39 -14 55 q-10 12 -32 12q-20 0 -23 -4q-4 -5 -4 -14v-149q0 -15 5 -19q4 -3 18 -3q22 0 36 15t14 39v68zM224 247q0 63 -41 63q-25 0 -30.5 -3t-5.5 -16v-164q0 -20 7 -21q5 -1 20 -1q23 0 36 14q14 14 14 44v84z" />
<glyph unicode="C" horiz-adv-x="339" d="M215 503v52q0 13 -10 27.5t-27 14.5q-38 0 -38 -57v-377q0 -57 38 -57q20 0 28.5 12.5t8.5 27.5v52q0 10 8 11.5t45 1.5q33 0 42 -3t9 -16v-52q0 -64 -36.5 -102t-104.5 -38q-66 0 -105.5 40.5t-39.5 99.5v419q0 60 39.5 100.5t105.5 40.5q67 0 104 -41t37 -100v-54 q0 -8 -10 -10.5t-44 -2.5q-43 0 -48 4q-2 3 -2 7z" />
<glyph unicode="D" horiz-adv-x="364" d="M331 152q0 -65 -43 -109q-42 -43 -115 -43h-104q-21 0 -25 7q-4 5 -4 24v638q0 20 4 25q5 6 26 6h102q74 0 118 -41q41 -38 41 -110v-397zM223 528q0 39 -13 55q-12 12 -33 12q-24 0 -27 -4t-3 -14v-450q0 -16 4 -20q2 -2 23 -2q24 0 38 18q11 16 11 49v356z" />
<glyph unicode="E" horiz-adv-x="310" d="M46 4q-6 5 -6 34v632q0 13 7 22q6 8 23 8h207q9 0 10.5 -8t1.5 -39q0 -51 -13 -51h-100q-19 0 -23 -5q-5 -7 -5 -19v-132q0 -22 6 -26t22 -4h48q9 0 11 -8t2 -42q0 -48 -13 -48h-45q-19 0 -25 -3q-7 -5 -7 -29v-149q0 -32 5 -35q7 -4 30 -4h95q9 0 11 -7.5t2 -40.5 q0 -34 -2 -42t-10 -8h-192q-35 0 -40 4z" />
<glyph unicode="F" horiz-adv-x="294" d="M88 1q-42 0 -46 5q-2 3 -2 10v653q0 16 6 23q6 8 21 8h210q9 0 10.5 -7.5t1.5 -39.5q0 -35 -2.5 -43t-13.5 -8h-97q-17 0 -22 -4q-6 -6 -6 -28v-138q0 -21 6 -26q5 -4 22 -4q17 -1 56 -1q10 0 12.5 -8t2.5 -41q0 -34 -2 -41t-13 -7h-53q-21 0 -25 -3q-7 -5 -7 -32v-252 q0 -12 -9 -14t-50 -2z" />
<glyph unicode="G" horiz-adv-x="357" d="M140 163q0 -57 38 -57q37 0 37 40v131q0 11 -9 14q-4 1 -14 2.5t-13 3.5q-4 4 -4 30q0 28 4 30q16 11 97 9q29 -1 38.5 -5.5t9.5 -15.5v-325q0 -16 -8 -19h-21q-5 0 -14 19.5t-14 21.5q-3 1 -11 -9t-28 -21.5t-50 -11.5q-67 0 -106 41.5t-39 98.5v419q0 56 39 98.5 t106 42.5q69 0 107.5 -42.5t38.5 -98.5v-54q0 -13 -60 -13h-8h-18.5t-11.5 1t-8 3t-2 6q0 8 -0.5 28t-0.5 25q0 14 -9.5 28t-27.5 14q-38 0 -38 -57v-377z" />
<glyph unicode="H" horiz-adv-x="371" d="M91 1q-37 0 -44 2t-7 12v666q0 12 8 15t43 3q38 0 47 -3.5t9 -15.5v-234q0 -28 13 -32q39 -4 55 0q8 3 8 29v241q0 12 7 13.5t47 1.5q39 0 46.5 -2t7.5 -14v-662q0 -15 -7 -17.5t-46 -2.5q-40 0 -47.5 3t-7.5 17v265q0 22 -9 23q-10 2 -33 1.5t-27 -1.5q-8 -3 -8 -25 v-267q0 -12 -7.5 -14t-47.5 -2z" />
<glyph unicode="I" horiz-adv-x="187" d="M147 17q0 -11 -7.5 -13.5t-48.5 -2.5q-37 0 -44 2t-7 12v668q0 11 8 13.5t43 2.5q40 0 48 -2.5t8 -14.5v-665z" />
<glyph unicode="J" horiz-adv-x="329" d="M116 192q0 -31 1 -44q4 -42 35 -42q37 0 37 56v516q0 14 8 17.5t39 3.5q38 0 45.5 -2.5t7.5 -17.5v-539q0 -65 -34.5 -102.5t-102.5 -37.5q-65 0 -101 40.5t-36 98.5v53q0 14 6.5 16.5t36.5 2.5h6q34 0 43 -3t9 -16z" />
<glyph unicode="K" horiz-adv-x="372" d="M147 238v-220q0 -18 -54 -18q-53 0 -53 16v669q0 14 52 14q55 0 55 -15v-242q2 -19 5 -20q2 1 7 19l69 245q2 8 10 9t46 1q56 -1 56 -10l-82 -251q-7 -19 -7 -33t7 -36l99 -354q1 -4 -1 -6t-14.5 -4t-37.5 -2h-13q-20 0 -27 0.5t-11.5 3.5t-6.5 10l-70 282q-4 17 -16 -6 q-3 -4 -5 -10q-8 -19 -8 -42z" />
<glyph unicode="L" horiz-adv-x="298" d="M90 700q39 0 48 -2.5t9 -14.5v-546q0 -31 6 -35q7 -4 27 -4h89q10 0 12 -7.5t2 -39.5q0 -36 -2 -43.5t-11 -7.5h-192q-28 0 -33 6t-5 35v643q0 11 8.5 13.5t41.5 2.5z" />
<glyph unicode="M" horiz-adv-x="437" d="M143 18q0 -12 -8.5 -15t-46.5 -3q-35 0 -41.5 2.5t-6.5 14.5v666q0 12 7 14t39 2t42 -6.5t18 -30.5l44 -143q19 -66 28 -66q8 0 28 66l44 143q7 24 16.5 31t38.5 7q34 0 43 -2.5t9 -14.5v-665q0 -13 -7 -15.5t-46 -2.5q-36 0 -44 3t-8 14q0 321 -3 400q-3 7 -8 5.5 t-7 -9.5q-16 -75 -34 -136q-3 -15 -22 -15q-17 0 -22 14q-16 64 -32 135q-1 7 -8 9t-10 -4q-3 -80 -3 -398z" />
<glyph unicode="N" horiz-adv-x="387" d="M173 322q-16 59 -21 59q-7 0 -7 -34v-329q0 -12 -8.5 -15t-46.5 -3q-36 0 -43 2.5t-7 14.5v669q0 10 6 12t40 2q32 0 41 -5.5t15 -26.5q37 -145 81 -295q5 -26 12 -26t7 30v305q0 12 8 15t45 3q38 0 45 -2.5t7 -14.5v-654q0 -20 -6.5 -24.5t-43.5 -4.5q-21 0 -30 4.5 t-14 22.5z" />
<glyph unicode="O" horiz-adv-x="357" d="M321 144q0 -65 -37.5 -104.5t-108.5 -39.5q-67 0 -106 40.5t-39 103.5v413q0 64 41 103.5t104 39.5q65 0 105.5 -39t40.5 -104v-413zM213 537q0 60 -38 60t-38 -60v-371q0 -14 1 -22t4 -18t11.5 -15t21.5 -5q38 0 38 60v371z" />
<glyph unicode="P" horiz-adv-x="356" d="M331 418q0 -70 -50 -116q-41 -37 -112 -37q-22 0 -22 -31v-218q0 -12 -9 -14t-47 -2q-35 0 -43 3t-8 19v647q0 19 5 25q4 6 25 6h102q68 0 110 -35q49 -40 49 -116v-131zM223 528q0 39 -13 55q-12 12 -33 12q-23 0 -27 -4q-3 -4 -3 -14v-190q0 -18 6 -21q5 -1 22 -1 q22 0 36 16q12 16 12 51v96z" />
<glyph unicode="Q" horiz-adv-x="356" d="M108 15q-75 44 -75 129v413q0 64 41 103.5t104 39.5q64 0 104.5 -39t40.5 -104v-413q0 -103 -80 -132q-13 -4 -13 -11q0 -47 54 -47q10 0 10 -41q0 -38 -8 -38q-5 0 -16.5 0.5t-13.5 0.5q-134 11 -134 120q0 9 -14 19zM215 537q0 60 -37 60q-38 0 -38 -60v-371 q0 -60 38 -60q37 0 37 60v371z" />
<glyph unicode="R" horiz-adv-x="360" d="M330 16q0 -12 -8.5 -14t-46.5 -2t-45 2t-7 15v230q0 28 -9.5 45.5t-27.5 17.5q-35 0 -37 -4q-2 -3 -2 -9v-278q0 -14 -9.5 -16.5t-48.5 -2.5q-33 0 -41 3t-8 19v647q0 18 4 25q4 6 26 6h99q75 0 117 -41q41 -38 41 -110v-85q0 -42 -17 -66q-8 -12 -20.5 -20t-20.5 -11.5 t-8 -4.5t8.5 -3.5t21.5 -9.5t21 -18q18 -25 18 -63v-252zM220 528q0 39 -14 55q-10 12 -36 12q-16 0 -20 -5q-3 -6 -3 -13v-149q0 -16 5 -20q3 -2 18 -2q22 0 36 15t14 39v68z" />
<glyph unicode="S" horiz-adv-x="340" d="M19 538q0 53 25 97q37 65 117 65q62 0 102 -40t40 -96v-49q0 -6 -48 -6q-58 0 -58 7v46q0 20 -11 32.5t-25 12.5q-13 0 -22.5 -9.5t-11.5 -22.5q-3 -23 -3 -40q0 -39 30 -83.5t65.5 -80.5t65.5 -89.5t30 -108.5q0 -61 -16 -90q-27 -48 -52 -65.5t-77 -17.5 q-64 0 -104.5 37t-40.5 103v56q0 7 9 8.5t40 1.5q59 0 59 -8v-42q0 -30 8 -44.5t29 -14.5q32 0 36 37q2 34 2 46q0 28 -29.5 71.5t-65 83.5t-65 96t-29.5 107z" />
<glyph unicode="T" horiz-adv-x="321" d="M106 563q0 32 -7 37q-5 2 -29 2h-37q-11 0 -14.5 9t-3.5 40t2.5 40t11.5 9h264q9 0 11 -8.5t2 -38.5q0 -35 -2 -43t-10 -8h-43q-24 0 -29 -2q-7 -5 -7 -37v-553q0 -7 -11 -8.5t-47 -1.5q-34 0 -42.5 1.5t-8.5 8.5v553z" />
<glyph unicode="U" horiz-adv-x="357" d="M324 685v-545q0 -63 -38.5 -101.5t-107.5 -38.5q-66 0 -105.5 41t-39.5 98v544q0 12 9 14.5t47 2.5q31 0 41 -3t10 -14v-521q0 -56 38 -56t38 56v522q0 11 8.5 13.5t41.5 2.5q38 0 48 -3t10 -12z" />
<glyph unicode="V" horiz-adv-x="332" d="M209 682q1 13 8.5 15t44.5 2q38 0 47 -2.5t8 -12.5l-51 -337t-49 -332q-1 -11 -10.5 -13t-44.5 -2q-37 0 -47 2.5t-11 14.5q-33 271 -89 668q-1 11 7.5 13t47.5 2q38 0 46.5 -3t10.5 -15q4 -45 15.5 -202t17.5 -217q0 -10 4 -10q5 0 5 10q7 60 21 218.5t19 200.5z" />
<glyph unicode="W" horiz-adv-x="412" d="M171 12q-3 -12 -51 -12t-49 11l-56 677q-1 6 14.5 9t32.5 3q55 0 56 -11q5 -95 14.5 -242t13.5 -229q0 -10 6 -10q7 0 7 11l21 250q1 12 28 12q31 0 32 -12q2 -24 8.5 -110t12.5 -144q0 -10 6 -10q7 0 7 11q7 153 25 474q0 10 46 10t51 -6q1 -2 1 -5l-56 -678 q0 -2 -1 -3.5t-2.5 -3t-3 -2t-4.5 -1t-5.5 -1t-6.5 -0.5h-6.5h-8h-8.5q-41 0 -43 11l-34 176q-3 11 -7 11q-3 0 -6 -10z" />
<glyph unicode="X" horiz-adv-x="335" d="M229 361l-126 -2q0 6 -6 28l-80 299q-2 9 8.5 11.5t45.5 2.5q39 0 47 -2t10 -12q15 -99 30 -175q4 -14 8 -14q5 0 8 13q22 123 31 177q1 10 8.5 11.5t45.5 1.5t47.5 -2t6.5 -11l-76 -297q-8 -28 -8 -29zM103 359l126 2q0 -12 5 -26l86 -321q3 -9 -8 -11.5t-47 -2.5 q-35 0 -43.5 2t-11.5 11q-5 22 -36 183q-3 16 -7 16q-6 0 -8 -16q-20 -112 -36 -181q-2 -10 -11 -12.5t-45 -2.5q-37 0 -46 2.5t-6 14.5l83 316q5 15 5 26z" />
<glyph unicode="Y" horiz-adv-x="318" d="M107 243q0 33 -3 49q-1 6 -3 15.5t-5.5 23l-5.5 21.5q-52 225 -75 333q-1 5 3 8t12 4t15 1.5t15 0.5q59 0 61 -16l34 -246q0 -9 6 -9q5 0 5 10q7 51 17.5 134.5t14.5 110.5q2 16 56 16q12 0 19.5 -0.5t15.5 -1.5t11.5 -4t2.5 -8q-47 -220 -72 -327q-2 -9 -4 -20l-4 -22.5 t-3 -16.5q-6 -27 -6 -53v-238q0 -8 -55 -8q-53 0 -53 11q0 39 0.5 113t0.5 119z" />
<glyph unicode="Z" horiz-adv-x="300" d="M132 135q-3 -12 0 -28q3 -8 16 -8h116q11 0 11 -53q0 -46 -11 -46h-226q-13 0 -13 26q0 108 3 116l139 429q8 23 -7 34q-5 2 -21 2h-96q-12 0 -12 44q0 49 12 49h216q13 0 16 -4t3 -24q0 -72 -3 -81z" />
<glyph unicode="[" horiz-adv-x="211" d="M193 -88q-14 0 -41 -1t-44 -1t-35.5 1t-28 6.5t-9.5 14.5v834q0 9 9 14t29 6.5t35 2t45 0t40 -0.5q4 0 6 -3.5t2.5 -9t0.5 -11t-0.5 -12.5t-0.5 -9q0 -45 -8 -45h-9h-8h-7t-7 -0.5t-5.5 -1.5t-5 -2t-4 -3t-3.5 -4.5t-1.5 -6t-0.5 -7.5v-641q0 -9 2 -15t4 -9t8.5 -4.5 t9.5 -2t13 0t14 0.5q6 0 6 -40q0 -50 -6 -50z" />
<glyph unicode="\" horiz-adv-x="255" d="M20 680q-4 19 47 19t53 -10l115 -676q1 -4 -2.5 -7t-10 -4t-13 -1.5t-15.5 -0.5q-56 0 -58 15z" />
<glyph unicode="]" horiz-adv-x="211" d="M12 -37q0 2 -0.5 8t-0.5 10.5t0.5 9.5t1.5 8t4 3h11h10h8t7 1t5.5 2.5t4.5 3.5l2.5 5t2 7t0.5 10v642q0 4 -0.5 7.5t-1.5 6t-3.5 4.5t-4 3t-5 2t-5.5 1.5t-7 0.5h-7h-8h-9q-7 0 -7 45q0 3 -0.5 9.5t-0.5 12v11t2 9t6 3.5q10 0 28.5 0.5t31.5 0.5t29.5 -0.5t27.5 -1.5 t21 -3.5t15 -7.5t5 -11v-834q0 -8 -9 -12.5t-28.5 -6t-35 -1.5t-44.5 0.5t-41 0.5q-5 0 -5 51z" />
<glyph unicode="^" horiz-adv-x="341" d="M300 495q0 -3 -0.5 -4.5t-1.5 -3t-3 -3t-4 -2.5t-6.5 -3.5t-8.5 -4.5q-3 -1 -7.5 -4.5t-7.5 -5t-6.5 -2t-6 1t-5.5 6.5q-70 119 -73 119q-2 0 -71 -114q-8 -14 -38 9q-19 16 -13 27l23.5 41l40 69t26.5 45q2 3 5.5 9.5t6 10l6 8t7 6.5t7.5 2q10 0 30 -34q5 -9 32.5 -54.5 l47.5 -80t20 -38.5z" />
<glyph unicode="_" horiz-adv-x="281" d="M140 -33q9 0 69.5 -0.5t69.5 -0.5q4 0 6 -16t-2 -17q-6 -3 -34.5 -3t-59 0.5t-34.5 0.5q-22 -2 -90 0q-46 0 -64 2q-4 1 -4 16t5 17q8 2 58 2q18 1 43.5 0t36.5 -1z" />
<glyph unicode="`" horiz-adv-x="341" d="M258 589q-13 -32 -15 -43q-4 -16 -24 -7q-1 0 -133 60q-21 16 -12 28q5 7 17 39q5 13 34 0l98 -43q19 -8 29 -17.5t6 -16.5z" />
<glyph unicode="a" horiz-adv-x="345" d="M315 10q0 -7 -5.5 -8.5t-25.5 -1.5h-14q-37 0 -45.5 2t-8.5 13q0 19 -2 19q-1 1 -4 -1q0 -1 -4.5 -5.5t-6.5 -7t-7.5 -7t-10.5 -7t-13 -4.5t-16 -2q-58 0 -92.5 36t-34.5 106v195q0 74 37.5 109t88.5 35q34 0 56 -29q7 0 8 16q0 9 10 11.5t44 2.5q31 0 38.5 -1.5 t7.5 -9.5v-461zM210 311q0 66 -40 66t-40 -66v-138q0 -67 40 -67t40 67v138z" />
<glyph unicode="b" horiz-adv-x="346" d="M130 692v-219q0 -21 8 -16q2 1 3 2q10 9 27.5 15.5t27.5 6.5q55 0 90 -37t35 -107v-195q0 -70 -34 -106t-91 -36q-31 0 -60 29q-8 -1 -8 -14q0 -3 -0.5 -5.5t-2 -4t-3 -2.5t-4.5 -2t-5.5 -1h-7.5h-8.5h-10.5h-12h-12q-32 0 -32 8v684q0 9 47 9q53 0 53 -9zM215 173v138 q0 66 -40 66t-40 -66v-138q0 -67 40 -67q24 0 32 17t8 50z" />
<glyph unicode="c" horiz-adv-x="330" d="M315 144q0 -66 -38 -105.5t-107 -39.5q-66 0 -105.5 40.5t-39.5 104.5v193q0 65 40.5 104.5t104.5 39.5q66 0 105.5 -37t39.5 -108q0 -8 -8.5 -10t-49.5 -2q-32 0 -39.5 1.5t-7.5 8.5q0 50 -40 50q-41 0 -41 -66v-155q0 -20 2 -32.5t11.5 -23.5t27.5 -11q40 0 40 51 q0 5 2 7t13.5 3.5t35.5 1.5q36 0 45 -2.5t9 -12.5z" />
<glyph unicode="d" horiz-adv-x="345" d="M215 692q0 6 9.5 7t41.5 1h10q24 0 31.5 -1t7.5 -7v-684q0 -6 -6.5 -7t-25.5 -1h-14q-44 0 -47 1q-5 3 -5 12q0 18 -4 18q-2 0 -4 -2q-29 -29 -60 -29q-57 0 -90.5 36t-33.5 106v195q0 70 35 107t89 37q10 0 27.5 -6.5t27.5 -15.5q10 -7 11 14v219zM210 173v138 q0 66 -40 66t-40 -66v-138q0 -67 40 -67t40 67z" />
<glyph unicode="e" horiz-adv-x="340" d="M129 203q0 -36 1 -54q0 -43 40 -43t40 46q0 6 50 6q36 0 45.5 -2t9.5 -12q0 -70 -39.5 -107t-105.5 -37q-64 0 -104.5 39t-40.5 105v194q0 64 41 103.5t104 39.5q64 0 104.5 -39t40.5 -104v-104v-6.5t-2 -4.5t-6 -3.5t-12 -0.5h-152q-14 0 -14 -16zM169 377 q-39 0 -39 -45v-25q0 -15 38 -15q40 0 40 13v27q0 45 -39 45z" />
<glyph unicode="f" horiz-adv-x="233" d="M50 358q0 12 -4.5 15t-23.5 3q-9 0 -10.5 5.5t-1.5 37.5q0 33 1.5 42t8.5 9q26 0 29 9q1 9 1 55q0 84 52 131q39 35 110 35q8 0 8 -35v-17q0 -33 -2 -42t-8 -9q-29 0 -46 -24q-10 -15 -10 -59q0 -26 2 -35t55 -9q8 0 10 -9t2 -43q0 -24 -1.5 -33t-3 -9.5t-8.5 -0.5 q-39 0 -47.5 -2.5t-8.5 -14.5v-340q0 -13 -7 -15.5t-44 -2.5t-45 2t-8 14v342z" />
<glyph unicode="g" horiz-adv-x="345" d="M206 25q-19 -25 -54 -25q-53 0 -90 35.5t-37 107.5v195q0 69 36 106t93 37q10 0 18.5 -2.5t15 -7.5t10 -8.5t9 -10t6.5 -7.5q5 -4 6 1t1 20q0 14 31 13h21h14h13.5t9 -0.5t5 -2.5t1.5 -5v-527q0 -67 -38 -105.5t-107 -38.5q-66 0 -105.5 40t-39.5 104q0 9 30 8h23 q7 0 14 0.5t11.5 0.5t8.5 0.5t6 0l4 -1t2.5 -2t0.5 -4.5q0 -24 13 -38.5t32 -14.5q41 0 44 59q1 16 1 49q0 27 -5 27q-1 0 -4 -3zM210 173v138q0 66 -40 66q-41 0 -41 -66v-138q0 -67 41 -67q40 0 40 67z" />
<glyph unicode="h" horiz-adv-x="351" d="M321 10q0 -7 -10 -8.5t-41 -1.5q-36 0 -46.5 1t-10.5 7v310q0 60 -38 60t-38 -60v-307q0 -8 -8.5 -9.5t-49.5 -1.5q-32 0 -40.5 1.5t-8.5 8.5v682q0 7 9 8t38 1h8q45 0 45 -9v-219q0 -21 8 -16q2 1 3 2q24 22 55 22q54 0 89.5 -37t35.5 -107v-327z" />
<glyph unicode="i" horiz-adv-x="177" d="M87 678q24 -1 40 -19t18 -44q1 -18 1 -32.5t-14 -24t-45 -12.5q-27 -4 -45.5 19.5t-15.5 52.5t15.5 45t45.5 15zM142 18q0 -13 -7.5 -15.5t-48.5 -2.5q-38 0 -44.5 2t-6.5 14v448q0 12 8 14.5t43 2.5q40 0 48 -2.5t8 -15.5v-445z" />
<glyph unicode="j" horiz-adv-x="177" d="M87 678q25 -1 41 -19t18 -44v-32.5t-14 -24t-45 -12.5q-26 -4 -45 19.5t-16 52.5q2 19 6.5 31t18 21t36.5 8zM141 -57q0 -143 -158 -143q-7 0 -9.5 9t-2.5 39q0 51 11 51q34 0 44 13.5t10 50.5v500q0 11 8 14.5t44 3.5q37 0 45 -3t8 -14v-521z" />
<glyph unicode="k" horiz-adv-x="341" d="M149 182q-12 -10 -12 -23v-141q0 -11 -13.5 -14t-42.5 -3q-51 0 -51 15v669q0 14 51 14q56 0 56 -15v-349q0 -17 5 -17l2 2l11 21l47 129q3 10 47 10h21.5t21 -1t18 -3t4.5 -6l-73 -162q-9 -20 -9 -26q0 -14 6 -27l93 -243q1 -3 -2 -5.5t-17 -4.5t-39 -2q-47 0 -51 14 l-54 151q-8 26 -19 17z" />
<glyph unicode="l" horiz-adv-x="177" d="M141 16q0 -11 -8 -13.5t-48 -2.5q-36 0 -43 2t-7 12v669q0 11 8 13.5t42 2.5q38 0 47 -2.5t9 -14.5v-666z" />
<glyph unicode="m" horiz-adv-x="502" d="M348 480q124 0 124 -145v-325q0 -7 -9 -8.5t-41 -1.5q-37 0 -47.5 1.5t-10.5 7.5v305v5q0 20 -1 29.5t-8.5 19t-22.5 9.5q-13 0 -19 -8.5t-7 -17.5t-1 -28v-6v-307q0 -7 -9.5 -8.5t-41.5 -1.5q-57 0 -57 9v309q0 19 -1 29t-8 20t-21 10q-20 0 -25 -15t-5 -45v-306 q0 -8 -9 -9.5t-48 -1.5q-34 0 -42 1.5t-8 8.5v462q0 6 6.5 7t36.5 1q47 0 51 -4q4 -3 4 -12q2 -21 5 -20q5 12 23.5 24t35.5 12q28 0 44.5 -10.5t22 -21t6.5 -10.5q2 0 7 6.5t12 14.5t24 14.5t40 6.5z" />
<glyph unicode="n" horiz-adv-x="351" d="M321 10q0 -7 -9 -8.5t-41 -1.5q-58 0 -58 8v306q0 63 -30 63q-46 0 -46 -60v-306q0 -8 -8 -9.5t-49 -1.5q-34 0 -42 1.5t-8 8.5v462q0 6 6.5 7t38.5 1h17q18 0 24 -0.5t9 -3.5t3 -11q0 -27 2 -28q2 0 5 5q9 15 31 26.5t38 11.5q53 0 85 -35t32 -110v-325z" />
<glyph unicode="o" horiz-adv-x="341" d="M316 144q0 -70 -39.5 -107t-106.5 -37q-64 0 -104.5 39t-40.5 105v194q0 64 41 103.5t104 39.5q65 0 105.5 -39t40.5 -104v-194zM210 173v138q0 66 -40 66t-40 -66v-138q0 -67 40 -67t40 67z" />
<glyph unicode="p" horiz-adv-x="346" d="M321 337v-194q0 -66 -36.5 -104.5t-91.5 -38.5q-9 0 -25.5 6t-26.5 15q-10 5 -11 -14v-199q0 -7 -5 -7.5t-45 -0.5q-34 0 -42 1.5t-8 7.5v662q0 7 7 8t38 1h15t12 0.5t8.5 0.5t6.5 -0.5t4.5 -1.5t3.5 -3t1.5 -4l1.5 -6l3 -20q2 -1 4 0q1 1 6.5 8.5t11 12t16.5 9.5t24 5 q55 0 91.5 -38t36.5 -106zM215 173v138q0 66 -40 66t-40 -66v-138q0 -67 40 -67t40 67z" />
<glyph unicode="q" horiz-adv-x="346" d="M152 481q13 0 24 -5t16.5 -10t11 -12.5t6.5 -8.5q5 -2 6 2t1 14v3q0 12 6.5 14t32.5 2h16h13h15t8.5 -1t6 -2.5t1.5 -5.5v-662q0 -6 -8 -7.5t-42 -1.5q-38 0 -44 1t-6 7v199q0 20 -8 16q-1 -1 -3 -2q-24 -21 -53 -21q-52 0 -89.5 37t-37.5 106v194q0 68 36 106t91 38z M211 173v138q0 66 -41 66q-40 0 -40 -66v-138q0 -67 40 -67q41 0 41 67z" />
<glyph unicode="r" horiz-adv-x="235" d="M195 375q-25 0 -41.5 -19.5t-16.5 -49.5v-295q0 -8 -8.5 -9.5t-48.5 -1.5q-33 0 -41.5 1.5t-8.5 8.5v462q0 7 29 7h16h20q22 1 27.5 -1t5.5 -13v-8.5t0.5 -6.5t1.5 -4t2 -1l6 7l14 12t22.5 11t34.5 5h8.5t4 -4t3 -11t0.5 -23q0 -54 -4 -59q-6 -8 -26 -8z" />
<glyph unicode="s" horiz-adv-x="318" d="M23 351q0 51 37 90t97 39q58 0 96 -41.5t38 -99.5q0 -5 -48 -5q-53 0 -53 7q0 24 -10 37.5t-25 13.5q-35 0 -35 -43q0 -18 18.5 -32.5t44.5 -28t52 -31.5t44.5 -51t18.5 -79q0 -51 -41 -89t-98 -38q-59 0 -99 38.5t-40 101.5q0 5 8 6t38 1q52 0 52 -5q0 -50 39 -50t39 43 q0 24 -18 40.5t-43 27.5t-50.5 26t-43.5 45.5t-18 76.5z" />
<glyph unicode="t" horiz-adv-x="242" d="M52 544q0 10 8 12t45 2t45.5 -2t8.5 -14v-53q0 -13 8 -16t40 -3q9 0 12 -9t3 -38t-1.5 -35t-10.5 -6q-42 0 -47 -5q-4 -4 -4 -19v-201q0 -34 14 -46t41 -12q10 0 10 -52q0 -44 -4 -46q-2 -1 -5 -1q-89 0 -126 36.5t-37 106.5v226q0 14 -30 14q-8 0 -10 6.5t-2 32.5 q0 21 1.5 31t4 12.5t7.5 2.5q20 0 24.5 3.5t4.5 17.5v55z" />
<glyph unicode="u" horiz-adv-x="346" d="M25 470q0 6 9.5 8t39.5 2q35 0 45.5 -2t10.5 -8v-298q0 -21 1 -32.5t8.5 -24t22.5 -12.5q49 0 49 66v298q0 8 7.5 10t45.5 2q35 0 43.5 -1.5t8.5 -7.5v-462q0 -8 -29 -8h-15q-42 0 -48 4q-7 7 -7 24q0 18 -2 18q-1 0 -4 -5q-24 -42 -67 -42q-54 0 -86.5 35t-32.5 111v325 z" />
<glyph unicode="v" horiz-adv-x="314" d="M155 161q4 0 7 11q35 282 36 294q1 14 57 14q53 0 49 -17l-95 -447q-3 -16 -55 -16h-4q-18 0 -27 0.5t-17.5 5t-10.5 13.5l-85 448q-1 4 2.5 6.5t11 3.5t15 1.5t17.5 0.5q59 0 61 -14l32 -294q0 -10 6 -10z" />
<glyph unicode="w" horiz-adv-x="409" d="M173 9q-2 -11 -50 -9q-44 3 -45 13l-68 448q-2 8 9 12.5t33 4.5q49 0 51 -16l29 -267q0 -10 6 -10q4 0 7 11l24 271q0 12 33 12q39 0 40 -12q4 -58 11.5 -141l11.5 -129q0 -10 6 -10q4 0 7 11q5 52 14 135t14 136q1 11 40 11q13 0 22 -0.5t17 -2t11.5 -4.5t2.5 -7 l-70 -456q-1 -10 -16 -11t-31 1q-2 0 -9.5 0.5t-12.5 1t-11.5 1.5t-10 3.5t-3.5 6.5l-23 175q-3 11 -7 11q-6 0 -6 -10z" />
<glyph unicode="x" horiz-adv-x="319" d="M192 471q2 8 57 8q15 0 26.5 -2t17 -4.5t4.5 -5.5l-70 -196q-4 -12 -4 -27q0 -16 3 -22l83 -210q5 -12 -48 -12q-57 0 -60 11l-38 131q-3 9 -6 9q-5 0 -7 -10q-24 -86 -38 -128q-4 -13 -58 -13q-48 0 -44 13l76 207q3 7 3 23q0 17 -4 27l-71 197q-1 3 4.5 6t16 4.5 t23.5 1.5q61 0 63 -13l30 -124q3 -9 6 -9q2 0 5 10q27 111 30 128z" />
<glyph unicode="y" horiz-adv-x="329" d="M107 36q0 16 -3 31l-94 402q-1 4 3 6t12.5 3t16.5 1.5t20 0.5q51 0 53 -14q8 -52 22 -131.5t21 -124.5q0 -10 6 -10q4 0 7 11q35 194 45 257q2 12 55 12q52 0 48 -14l-161 -653q-3 -13 -48 -13q-10 0 -16.5 0.5t-14.5 2t-11.5 5t-2.5 8.5l39 187q3 13 3 33z" />
<glyph unicode="z" horiz-adv-x="296" d="M133 120q-3 -5 -1 -15.5t6 -12.5q5 -3 30 -3h98q15 0 15 -48q0 -34 -6 -39q-4 -2 -9 -2h-228q-12 0 -15 12.5t-3 42.5q0 57 2 60l135 238q4 8 2 20t-9 17q-5 2 -21 2h-85q-16 0 -16 39q0 49 13 49h216q15 0 18 -8.5t3 -38.5q0 -52 -5 -61z" />
<glyph unicode="{" horiz-adv-x="240" d="M165 440q0 -32 -8.5 -52.5t-17.5 -29t-9 -9.5t9 -9.5t17.5 -29.5t8.5 -52q0 -36 0.5 -91.5t0.5 -101.5q0 -61 58 -61q5 0 5 -43q0 -49 -5 -49q-158 0 -158 148v193q0 22 -16.5 41t-34.5 19q-5 0 -5 35q0 37 5 37q19 0 35 19t16 41v196q0 147 158 147q6 0 6 -45t-6 -45 q-27 0 -43 -17.5t-16 -42.5v-198z" />
<glyph unicode="|" horiz-adv-x="177" d="M142 -55q0 -10 -13 -12.5t-42 -2.5q-52 0 -52 13v812q0 15 50 15q57 0 57 -16v-809z" />
<glyph unicode="}" horiz-adv-x="240" d="M231 349q0 -36 -5 -36q-18 0 -34.5 -19t-16.5 -41v-193q0 -148 -159 -148q-5 0 -5 48q0 44 5 44q59 0 59 61v193q0 31 8.5 52t17.5 29.5t9 9.5t-9 9t-17.5 29t-8.5 53v198q0 25 -15.5 42.5t-43.5 17.5q-6 0 -6 46q0 44 6 44q159 0 159 -147v-196q0 -22 16 -41t35 -19 q5 0 5 -36z" />
<glyph unicode="~" horiz-adv-x="443" d="M218 295q-7 7 -16 20.5t-16.5 21t-16.5 7.5q-8 0 -15 -5t-12.5 -11.5l-16 -18.5t-20.5 -22q-12 -11 -27 6q-14 16 -18 24q-9 13 50 69q34 32 60 32q38 0 54 -15q8 -7 17 -21.5t16.5 -23t16.5 -8.5q7 0 15.5 6.5t25.5 26t22 24.5q10 11 25 -2q19 -17 25 -28 q10 -15 -53 -69q-34 -29 -62 -29q-38 0 -54 16z" />
<glyph horiz-adv-x="333" d="M119 10q-1 -10 -48 -10h-7q-50 0 -49 9l96 677q2 15 52 15q52 0 54 -18l101 -673q1 -4 -2.5 -6t-12.5 -3t-15 -1h-19h-6q-41 0 -47 5q-2 3 -3 7q-4 27 -10 74t-10 75q0 2 -1 3.5t-2.5 2.5t-3 1.5t-4.5 0.5h-5h-6.5h-6.5h-8q-21 0 -22 -8q-10 -95 -15 -151zM143 252 q-1 -5 3.5 -6.5t16.5 -1.5h6h7t5 0.5t3 2t1 4.5q-10 154 -13 195q0 27 -9 27q-7 0 -7 -29q-2 -39 -6.5 -99.5t-6.5 -92.5zM36 778q-1 24 12.5 41.5t38.5 14.5q30 -3 39.5 -17t8.5 -39q0 -50 -48 -54q-26 -3 -38.5 13t-12.5 41zM196 778q-1 24 12.5 41.5t38.5 14.5 q30 -3 39.5 -16.5t9.5 -39.5q0 -50 -49 -54q-26 -3 -38.5 13t-12.5 41z" />
<glyph horiz-adv-x="333" d="M119 10q-1 -10 -48 -10h-7q-50 0 -49 9l96 677q2 15 52 15q52 0 54 -18l101 -673q1 -4 -2.5 -6t-12.5 -3t-15 -1h-19h-6q-41 0 -47 5q-2 3 -3 7q-4 27 -10 74t-10 75q0 2 -1 3.5t-2.5 2.5t-3 1.5t-4.5 0.5h-5h-6.5h-6.5h-8q-21 0 -22 -8q-10 -95 -15 -151zM143 252 q-1 -5 3.5 -6.5t16.5 -1.5h6h7t5 0.5t3 2t1 4.5q-10 154 -13 195q0 27 -9 27q-7 0 -7 -29q-2 -39 -6.5 -99.5t-6.5 -92.5zM169 729q-30 -4 -53 18.5t-19 53.5q5 39 19.5 50.5t50.5 12.5q27 1 46.5 -19.5t18.5 -47.5q1 -33 -14 -48.5t-49 -19.5zM197 796q2 14 -7 24t-23 10 q-19 -1 -25.5 -7t-8.5 -26q-3 -15 9 -25t26 -8q15 2 22 9t7 23z" />
<glyph horiz-adv-x="339" d="M320 140q0 -67 -36 -102.5t-73 -35.5q-4 0 -4 -29q0 -38 -27 -66t-65 -28q-4 0 -4 25q0 32 3 32q14 0 26 10.5t12 25.5q0 28 -3 28q-9 0 -26.5 7.5t-38.5 22t-36 44t-15 66.5v419q0 59 40 100t105 41q67 0 104.5 -41t37.5 -100v-54q0 -8 -10.5 -10.5t-44.5 -2.5 q-43 0 -48 4q-2 3 -2 7v52q0 14 -9.5 28t-27.5 14q-38 0 -38 -57v-377q0 -57 38 -57q20 0 28.5 12.5t8.5 27.5v52q0 10 8.5 11.5t45.5 1.5q36 0 43.5 -3t7.5 -16v-52z" />
<glyph horiz-adv-x="310" d="M46 4q-6 5 -6 34v632q0 13 7 22q6 8 23 8h207q9 0 10.5 -8t1.5 -39q0 -51 -13 -51h-100q-19 0 -23 -5q-5 -7 -5 -19v-132q0 -22 6 -26t22 -4h48q9 0 11 -8t2 -42q0 -48 -13 -48h-45q-19 0 -25 -3q-7 -5 -7 -29v-149q0 -32 5 -35q7 -4 30 -4h95q9 0 11 -7.5t2 -40.5 q0 -34 -2 -42t-10 -8h-192q-35 0 -40 4zM106 813q41 16 98 43q29 13 34 0q17 -38 18 -39q10 -14 -13 -28l-56.5 -25l-76.5 -35q-21 -9 -23 7q-4 18 -16 43q-4 7 6 16.5t29 17.5z" />
<glyph horiz-adv-x="387" d="M173 322q-16 59 -21 59q-7 0 -7 -34v-329q0 -12 -8.5 -15t-46.5 -3q-36 0 -43 2.5t-7 14.5v669q0 10 6 12t40 2q32 0 41 -5.5t15 -26.5q37 -145 81 -295q5 -26 12 -26t7 30v305q0 12 8 15t45 3q38 0 45 -2.5t7 -14.5v-654q0 -20 -6.5 -24.5t-43.5 -4.5q-21 0 -30 4.5 t-14 22.5zM187 740q-19 19 -30 19q-4 0 -7.5 -1.5t-6 -3.5t-10 -9l-15.5 -14q-8 -6 -15 -4t-9 9l-19 39q-6 10 38 40q30 20 43 20q24 0 36 -11l9.5 -9.5l8 -8t5.5 -4t7 -1.5q8 0 37 29q9 8 15.5 5.5t8.5 -10.5q1 -3 19 -39v-6t-5 -7t-9 -8l-11.5 -9l-12.5 -10 q-22 -18 -41 -18q-24 0 -36 12z" />
<glyph unicode="&#x85;" horiz-adv-x="357" d="M321 144q0 -65 -37.5 -104.5t-108.5 -39.5q-67 0 -106 40.5t-39 103.5v413q0 64 41 103.5t104 39.5q65 0 105.5 -39t40.5 -104v-413zM213 537q0 60 -38 60t-38 -60v-371q0 -14 1 -22t4 -18t11.5 -15t21.5 -5q38 0 38 60v371zM47 788q-1 24 12.5 41.5t38.5 14.5 q30 -3 39.5 -17t8.5 -39q0 -50 -48 -54q-26 -3 -38.5 13t-12.5 41zM207 788q-1 24 12.5 41.5t38.5 14.5q30 -3 39.5 -16.5t9.5 -39.5q0 -50 -49 -54q-26 -3 -38.5 13t-12.5 41z" />
<glyph horiz-adv-x="357" d="M324 685v-545q0 -63 -38.5 -101.5t-107.5 -38.5q-66 0 -105.5 41t-39.5 98v544q0 12 9 14.5t47 2.5q31 0 41 -3t10 -14v-521q0 -56 38 -56t38 56v522q0 11 8.5 13.5t41.5 2.5q38 0 48 -3t10 -12zM49 788q-1 24 12.5 41.5t38.5 14.5q30 -3 39.5 -17t8.5 -39q0 -50 -48 -54 q-26 -3 -38.5 13t-12.5 41zM209 788q-1 24 12.5 41.5t38.5 14.5q30 -3 39.5 -16.5t9.5 -39.5q0 -50 -49 -54q-26 -3 -38.5 13t-12.5 41z" />
<glyph horiz-adv-x="345" d="M315 10q0 -7 -5.5 -8.5t-25.5 -1.5h-14q-37 0 -45.5 2t-8.5 13q0 19 -2 19q-1 1 -4 -1q0 -1 -4.5 -5.5t-6.5 -7t-7.5 -7t-10.5 -7t-13 -4.5t-16 -2q-58 0 -92.5 36t-34.5 106v195q0 74 37.5 109t88.5 35q34 0 56 -29q7 0 8 16q0 9 10 11.5t44 2.5q31 0 38.5 -1.5 t7.5 -9.5v-461zM210 311q0 66 -40 66t-40 -66v-138q0 -67 40 -67t40 67v138zM122 623q41 16 98 43q29 13 34 0q17 -38 18 -39q10 -14 -13 -28l-56.5 -25l-76.5 -35q-21 -9 -23 7q-4 18 -16 43q-4 7 6 16.5t29 17.5z" />
<glyph horiz-adv-x="345" d="M315 10q0 -7 -5.5 -8.5t-25.5 -1.5h-14q-37 0 -45.5 2t-8.5 13q0 19 -2 19q-1 1 -4 -1q0 -1 -4.5 -5.5t-6.5 -7t-7.5 -7t-10.5 -7t-13 -4.5t-16 -2q-58 0 -92.5 36t-34.5 106v195q0 74 37.5 109t88.5 35q34 0 56 -29q7 0 8 16q0 9 10 11.5t44 2.5q31 0 38.5 -1.5 t7.5 -9.5v-461zM210 311q0 66 -40 66t-40 -66v-138q0 -67 40 -67t40 67v138zM268 589q-13 -32 -15 -43q-4 -16 -24 -7q-1 0 -133 60q-21 16 -12 28q5 7 17 39q5 13 34 0l98 -43q19 -8 29 -17.5t6 -16.5z" />
<glyph horiz-adv-x="345" d="M315 10q0 -7 -5.5 -8.5t-25.5 -1.5h-14q-37 0 -45.5 2t-8.5 13q0 19 -2 19q-1 1 -4 -1q0 -1 -4.5 -5.5t-6.5 -7t-7.5 -7t-10.5 -7t-13 -4.5t-16 -2q-58 0 -92.5 36t-34.5 106v195q0 74 37.5 109t88.5 35q34 0 56 -29q7 0 8 16q0 9 10 11.5t44 2.5q31 0 38.5 -1.5 t7.5 -9.5v-461zM210 311q0 66 -40 66t-40 -66v-138q0 -67 40 -67t40 67v138zM292 572q0 -6 -9 -22.5t-10 -19.5q-2 -8 -7.5 -11t-16.5 6q-66 64 -73 64t-73 -63q-19 -18 -24 5q-1 3 -11 21t-9 24q0 2 2 5t7 7.5t10.5 8.5l14 10.5t14.5 11.5q6 4 16.5 13t16.5 13.5l13.5 10 t13 8t9.5 2.5q11 0 71 -52q6 -5 14 -11t12.5 -10l9 -8t7 -7t2.5 -6z" />
<glyph horiz-adv-x="345" d="M315 10q0 -7 -5.5 -8.5t-25.5 -1.5h-14q-37 0 -45.5 2t-8.5 13q0 19 -2 19q-1 1 -4 -1q0 -1 -4.5 -5.5t-6.5 -7t-7.5 -7t-10.5 -7t-13 -4.5t-16 -2q-58 0 -92.5 36t-34.5 106v195q0 74 37.5 109t88.5 35q34 0 56 -29q7 0 8 16q0 9 10 11.5t44 2.5q31 0 38.5 -1.5 t7.5 -9.5v-461zM210 311q0 66 -40 66t-40 -66v-138q0 -67 40 -67t40 67v138zM48 598q-1 24 12.5 41.5t38.5 14.5q30 -3 39.5 -17t8.5 -39q0 -50 -48 -54q-26 -3 -38.5 13t-12.5 41zM208 598q-1 24 12.5 41.5t38.5 14.5q30 -3 39.5 -16.5t9.5 -39.5q0 -50 -49 -54 q-26 -3 -38.5 13t-12.5 41z" />
<glyph horiz-adv-x="345" d="M315 10q0 -7 -5.5 -8.5t-25.5 -1.5h-14q-37 0 -45.5 2t-8.5 13q0 19 -2 19q-1 1 -4 -1q0 -1 -4.5 -5.5t-6.5 -7t-7.5 -7t-10.5 -7t-13 -4.5t-16 -2q-58 0 -92.5 36t-34.5 106v195q0 74 37.5 109t88.5 35q34 0 56 -29q7 0 8 16q0 9 10 11.5t44 2.5q31 0 38.5 -1.5 t7.5 -9.5v-461zM210 311q0 66 -40 66t-40 -66v-138q0 -67 40 -67t40 67v138zM171 550q-19 19 -30 19q-4 0 -7.5 -1.5t-6 -3.5t-10 -9l-15.5 -14q-8 -6 -15 -4t-9 9l-19 39q-6 10 38 40q30 20 43 20q24 0 36 -11l9.5 -9.5l8 -8t5.5 -4t7 -1.5q8 0 37 29q9 8 15.5 5.5 t8.5 -10.5q1 -3 19 -39v-6t-5 -7t-9 -8l-11.5 -9l-12.5 -10q-22 -18 -41 -18q-24 0 -36 12z" />
<glyph horiz-adv-x="345" d="M315 10q0 -7 -5.5 -8.5t-25.5 -1.5h-14q-37 0 -45.5 2t-8.5 13q0 19 -2 19q-1 1 -4 -1q0 -1 -4.5 -5.5t-6.5 -7t-7.5 -7t-10.5 -7t-13 -4.5t-16 -2q-58 0 -92.5 36t-34.5 106v195q0 74 37.5 109t88.5 35q34 0 56 -29q7 0 8 16q0 9 10 11.5t44 2.5q31 0 38.5 -1.5 t7.5 -9.5v-461zM210 311q0 66 -40 66t-40 -66v-138q0 -67 40 -67t40 67v138zM172 529q-30 -4 -53 18.5t-19 53.5q5 39 19.5 50.5t50.5 12.5q27 1 46.5 -19.5t18.5 -47.5q1 -33 -14 -48.5t-49 -19.5zM200 596q2 14 -7 24t-23 10q-19 -1 -25.5 -7t-8.5 -26q-3 -15 9 -25t26 -8 q15 2 22 9t7 23z" />
<glyph horiz-adv-x="330" d="M203 2q-4 0 -4 -29q0 -38 -27 -66t-65 -28q-4 0 -4 25q0 32 3 32q14 0 26 10.5t12 25.5q0 28 -3 28q-9 0 -26.5 7.5t-38.5 22t-36 45t-15 69.5v193q0 65 40.5 104.5t104.5 39.5q66 0 106 -37t40 -108q0 -8 -9 -10t-49 -2q-34 0 -42 1t-8 7q0 19 -10 31t-28 12 q-38 0 -38 -61v-148q0 -60 38 -60q21 0 29.5 13.5t8.5 29.5q0 4 3 6t14.5 3t35.5 1h8q33 0 40 -2t7 -13q0 -68 -38 -105t-75 -37z" />
<glyph horiz-adv-x="340" d="M129 203q0 -36 1 -54q0 -43 40 -43t40 46q0 6 50 6q36 0 45.5 -2t9.5 -12q0 -70 -39.5 -107t-105.5 -37q-64 0 -104.5 39t-40.5 105v194q0 64 41 103.5t104 39.5q64 0 104.5 -39t40.5 -104v-104v-6.5t-2 -4.5t-6 -3.5t-12 -0.5h-152q-14 0 -14 -16zM169 377 q-39 0 -39 -45v-25q0 -15 38 -15q40 0 40 13v27q0 45 -39 45zM116 623q41 16 98 43q29 13 34 0q17 -38 18 -39q10 -14 -13 -28l-56.5 -25l-76.5 -35q-21 -9 -23 7q-4 18 -16 43q-4 7 6 16.5t29 17.5z" />
<glyph horiz-adv-x="340" d="M129 203q0 -36 1 -54q0 -43 40 -43t40 46q0 6 50 6q36 0 45.5 -2t9.5 -12q0 -70 -39.5 -107t-105.5 -37q-64 0 -104.5 39t-40.5 105v194q0 64 41 103.5t104 39.5q64 0 104.5 -39t40.5 -104v-104v-6.5t-2 -4.5t-6 -3.5t-12 -0.5h-152q-14 0 -14 -16zM169 377 q-39 0 -39 -45v-25q0 -15 38 -15q40 0 40 13v27q0 45 -39 45zM258 589q-13 -32 -15 -43q-4 -16 -24 -7q-1 0 -133 60q-21 16 -12 28q5 7 17 39q5 13 34 0l98 -43q19 -8 29 -17.5t6 -16.5z" />
<glyph horiz-adv-x="340" d="M129 203q0 -36 1 -54q0 -43 40 -43t40 46q0 6 50 6q36 0 45.5 -2t9.5 -12q0 -70 -39.5 -107t-105.5 -37q-64 0 -104.5 39t-40.5 105v194q0 64 41 103.5t104 39.5q64 0 104.5 -39t40.5 -104v-104v-6.5t-2 -4.5t-6 -3.5t-12 -0.5h-152q-14 0 -14 -16zM169 377 q-39 0 -39 -45v-25q0 -15 38 -15q40 0 40 13v27q0 45 -39 45zM286 572q0 -6 -9 -22.5t-10 -19.5q-2 -8 -7.5 -11t-16.5 6q-66 64 -73 64t-73 -63q-19 -18 -24 5q-1 3 -11 21t-9 24q0 2 2 5t7 7.5t10.5 8.5l14 10.5t14.5 11.5q6 4 16.5 13t16.5 13.5l13.5 10t13 8t9.5 2.5 q11 0 71 -52q6 -5 14 -11t12.5 -10l9 -8t7 -7t2.5 -6z" />
<glyph horiz-adv-x="340" d="M129 203q0 -36 1 -54q0 -43 40 -43t40 46q0 6 50 6q36 0 45.5 -2t9.5 -12q0 -70 -39.5 -107t-105.5 -37q-64 0 -104.5 39t-40.5 105v194q0 64 41 103.5t104 39.5q64 0 104.5 -39t40.5 -104v-104v-6.5t-2 -4.5t-6 -3.5t-12 -0.5h-152q-14 0 -14 -16zM169 377 q-39 0 -39 -45v-25q0 -15 38 -15q40 0 40 13v27q0 45 -39 45zM42 598q-1 24 12.5 41.5t38.5 14.5q30 -3 39.5 -17t8.5 -39q0 -50 -48 -54q-26 -3 -38.5 13t-12.5 41zM202 598q-1 24 12.5 41.5t38.5 14.5q30 -3 39.5 -16.5t9.5 -39.5q0 -50 -49 -54q-26 -3 -38.5 13t-12.5 41 z" />
<glyph horiz-adv-x="177" d="M142 18q0 -13 -7.5 -15.5t-48.5 -2.5q-38 0 -44.5 2t-6.5 14v448q0 12 8 14.5t43 2.5q40 0 48 -2.5t8 -15.5v-445zM26 623q41 16 98 43q29 13 34 0q17 -38 18 -39q10 -14 -13 -28l-56.5 -25l-76.5 -35q-21 -9 -23 7q-4 18 -16 43q-4 7 6 16.5t29 17.5z" />
<glyph horiz-adv-x="177" d="M142 18q0 -13 -7.5 -15.5t-48.5 -2.5q-38 0 -44.5 2t-6.5 14v448q0 12 8 14.5t43 2.5q40 0 48 -2.5t8 -15.5v-445zM178 589q-13 -32 -15 -43q-4 -16 -24 -7q-1 0 -133 60q-21 16 -12 28q5 7 17 39q5 13 34 0l98 -43q19 -8 29 -17.5t6 -16.5z" />
<glyph horiz-adv-x="177" d="M142 18q0 -13 -7.5 -15.5t-48.5 -2.5q-38 0 -44.5 2t-6.5 14v448q0 12 8 14.5t43 2.5q40 0 48 -2.5t8 -15.5v-445zM206 572q0 -6 -9 -22.5t-10 -19.5q-2 -8 -7.5 -11t-16.5 6q-66 64 -73 64t-73 -63q-19 -18 -24 5q-1 3 -11 21t-9 24q0 2 2 5t7 7.5t10.5 8.5l14 10.5 t14.5 11.5q6 4 16.5 13t16.5 13.5l13.5 10t13 8t9.5 2.5q11 0 71 -52q6 -5 14 -11t12.5 -10l9 -8t7 -7t2.5 -6z" />
<glyph horiz-adv-x="177" d="M142 18q0 -13 -7.5 -15.5t-48.5 -2.5q-38 0 -44.5 2t-6.5 14v448q0 12 8 14.5t43 2.5q40 0 48 -2.5t8 -15.5v-445zM-38 598q-1 24 12.5 41.5t38.5 14.5q30 -3 39.5 -17t8.5 -39q0 -50 -48 -54q-26 -3 -38.5 13t-12.5 41zM122 598q-1 24 12.5 41.5t38.5 14.5 q30 -3 39.5 -16.5t9.5 -39.5q0 -50 -49 -54q-26 -3 -38.5 13t-12.5 41z" />
<glyph horiz-adv-x="351" d="M321 10q0 -7 -9 -8.5t-41 -1.5q-58 0 -58 8v306q0 63 -30 63q-46 0 -46 -60v-306q0 -8 -8 -9.5t-49 -1.5q-34 0 -42 1.5t-8 8.5v462q0 6 6.5 7t38.5 1h17q18 0 24 -0.5t9 -3.5t3 -11q0 -27 2 -28q2 0 5 5q9 15 31 26.5t38 11.5q53 0 85 -35t32 -110v-325zM168 550 q-19 19 -30 19q-4 0 -7.5 -1.5t-6 -3.5t-10 -9l-15.5 -14q-8 -6 -15 -4t-9 9l-19 39q-6 10 38 40q30 20 43 20q24 0 36 -11l9.5 -9.5l8 -8t5.5 -4t7 -1.5q8 0 37 29q9 8 15.5 5.5t8.5 -10.5q1 -3 19 -39v-6t-5 -7t-9 -8l-11.5 -9l-12.5 -10q-22 -18 -41 -18q-24 0 -36 12z " />
<glyph horiz-adv-x="341" d="M316 144q0 -70 -39.5 -107t-106.5 -37q-64 0 -104.5 39t-40.5 105v194q0 64 41 103.5t104 39.5q65 0 105.5 -39t40.5 -104v-194zM210 173v138q0 66 -40 66t-40 -66v-138q0 -67 40 -67t40 67zM113 623q41 16 98 43q29 13 34 0q17 -38 18 -39q10 -14 -13 -28l-56.5 -25 l-76.5 -35q-21 -9 -23 7q-4 18 -16 43q-4 7 6 16.5t29 17.5z" />
<glyph horiz-adv-x="341" d="M316 144q0 -70 -39.5 -107t-106.5 -37q-64 0 -104.5 39t-40.5 105v194q0 64 41 103.5t104 39.5q65 0 105.5 -39t40.5 -104v-194zM210 173v138q0 66 -40 66t-40 -66v-138q0 -67 40 -67t40 67zM271 589q-13 -32 -15 -43q-4 -16 -24 -7q-1 0 -133 60q-21 16 -12 28 q5 7 17 39q5 13 34 0l98 -43q19 -8 29 -17.5t6 -16.5z" />
<glyph horiz-adv-x="341" d="M316 144q0 -70 -39.5 -107t-106.5 -37q-64 0 -104.5 39t-40.5 105v194q0 64 41 103.5t104 39.5q65 0 105.5 -39t40.5 -104v-194zM210 173v138q0 66 -40 66t-40 -66v-138q0 -67 40 -67t40 67zM289 572q0 -6 -9 -22.5t-10 -19.5q-2 -8 -7.5 -11t-16.5 6q-66 64 -73 64 t-73 -63q-19 -18 -24 5q-1 3 -11 21t-9 24q0 2 2 5t7 7.5t10.5 8.5l14 10.5t14.5 11.5q6 4 16.5 13t16.5 13.5l13.5 10t13 8t9.5 2.5q11 0 71 -52q6 -5 14 -11t12.5 -10l9 -8t7 -7t2.5 -6z" />
<glyph horiz-adv-x="341" d="M316 144q0 -70 -39.5 -107t-106.5 -37q-64 0 -104.5 39t-40.5 105v194q0 64 41 103.5t104 39.5q65 0 105.5 -39t40.5 -104v-194zM210 173v138q0 66 -40 66t-40 -66v-138q0 -67 40 -67t40 67zM42 598q-1 24 12.5 41.5t38.5 14.5q30 -3 39.5 -17t8.5 -39q0 -50 -48 -54 q-26 -3 -38.5 13t-12.5 41zM202 598q-1 24 12.5 41.5t38.5 14.5q30 -3 39.5 -16.5t9.5 -39.5q0 -50 -49 -54q-26 -3 -38.5 13t-12.5 41z" />
<glyph horiz-adv-x="341" d="M316 144q0 -70 -39.5 -107t-106.5 -37q-64 0 -104.5 39t-40.5 105v194q0 64 41 103.5t104 39.5q65 0 105.5 -39t40.5 -104v-194zM210 173v138q0 66 -40 66t-40 -66v-138q0 -67 40 -67t40 67zM168 550q-19 19 -30 19q-4 0 -7.5 -1.5t-6 -3.5t-10 -9l-15.5 -14 q-8 -6 -15 -4t-9 9l-19 39q-6 10 38 40q30 20 43 20q24 0 36 -11l9.5 -9.5l8 -8t5.5 -4t7 -1.5q8 0 37 29q9 8 15.5 5.5t8.5 -10.5q1 -3 19 -39v-6t-5 -7t-9 -8l-11.5 -9l-12.5 -10q-22 -18 -41 -18q-24 0 -36 12z" />
<glyph horiz-adv-x="346" d="M25 470q0 6 9.5 8t39.5 2q35 0 45.5 -2t10.5 -8v-298q0 -21 1 -32.5t8.5 -24t22.5 -12.5q49 0 49 66v298q0 8 7.5 10t45.5 2q35 0 43.5 -1.5t8.5 -7.5v-462q0 -8 -29 -8h-15q-42 0 -48 4q-7 7 -7 24q0 18 -2 18q-1 0 -4 -5q-24 -42 -67 -42q-54 0 -86.5 35t-32.5 111v325 zM116 623q41 16 98 43q29 13 34 0q17 -38 18 -39q10 -14 -13 -28l-56.5 -25l-76.5 -35q-21 -9 -23 7q-4 18 -16 43q-4 7 6 16.5t29 17.5z" />
<glyph horiz-adv-x="346" d="M25 470q0 6 9.5 8t39.5 2q35 0 45.5 -2t10.5 -8v-298q0 -21 1 -32.5t8.5 -24t22.5 -12.5q49 0 49 66v298q0 8 7.5 10t45.5 2q35 0 43.5 -1.5t8.5 -7.5v-462q0 -8 -29 -8h-15q-42 0 -48 4q-7 7 -7 24q0 18 -2 18q-1 0 -4 -5q-24 -42 -67 -42q-54 0 -86.5 35t-32.5 111v325 zM258 589q-13 -32 -15 -43q-4 -16 -24 -7q-1 0 -133 60q-21 16 -12 28q5 7 17 39q5 13 34 0l98 -43q19 -8 29 -17.5t6 -16.5z" />
<glyph horiz-adv-x="346" d="M25 470q0 6 9.5 8t39.5 2q35 0 45.5 -2t10.5 -8v-298q0 -21 1 -32.5t8.5 -24t22.5 -12.5q49 0 49 66v298q0 8 7.5 10t45.5 2q35 0 43.5 -1.5t8.5 -7.5v-462q0 -8 -29 -8h-15q-42 0 -48 4q-7 7 -7 24q0 18 -2 18q-1 0 -4 -5q-24 -42 -67 -42q-54 0 -86.5 35t-32.5 111v325 zM286 572q0 -6 -9 -22.5t-10 -19.5q-2 -8 -7.5 -11t-16.5 6q-66 64 -73 64t-73 -63q-19 -18 -24 5q-1 3 -11 21t-9 24q0 2 2 5t7 7.5t10.5 8.5l14 10.5t14.5 11.5q6 4 16.5 13t16.5 13.5l13.5 10t13 8t9.5 2.5q11 0 71 -52q6 -5 14 -11t12.5 -10l9 -8t7 -7t2.5 -6z" />
<glyph horiz-adv-x="346" d="M25 470q0 6 9.5 8t39.5 2q35 0 45.5 -2t10.5 -8v-298q0 -21 1 -32.5t8.5 -24t22.5 -12.5q49 0 49 66v298q0 8 7.5 10t45.5 2q35 0 43.5 -1.5t8.5 -7.5v-462q0 -8 -29 -8h-15q-42 0 -48 4q-7 7 -7 24q0 18 -2 18q-1 0 -4 -5q-24 -42 -67 -42q-54 0 -86.5 35t-32.5 111v325 zM42 598q-1 24 12.5 41.5t38.5 14.5q30 -3 39.5 -17t8.5 -39q0 -50 -48 -54q-26 -3 -38.5 13t-12.5 41zM202 598q-1 24 12.5 41.5t38.5 14.5q30 -3 39.5 -16.5t9.5 -39.5q0 -50 -49 -54q-26 -3 -38.5 13t-12.5 41z" />
<glyph unicode="&#xa0;" horiz-adv-x="197" d="M132 643q0 -11 26 -10h20q5 0 5 -29q0 -31 -4 -31q-7 0 -17 0.5t-14 0.5t-8.5 -1t-6 -4t-1.5 -8v-262q0 -9 -31 -9q-30 0 -30 7v261q0 4 -0.5 7t-2.5 4.5t-3.5 2.5t-5.5 1h-6.5h-8.5h-10q-9 0 -11 6.5t-2 25.5q0 28 14 28q32 0 34 4q2 3 2 9v48q0 7 30 7q31 0 31 -9v-49z " />
<glyph unicode="&#xa1;" horiz-adv-x="287" d="M146 500q-46 -2 -80.5 30.5t-27.5 77.5q5 58 29 78t76 16q42 -2 70 -31t27 -69q2 -52 -20.5 -76.5t-73.5 -25.5zM188 600q2 22 -10.5 36t-34.5 15q-28 0 -38.5 -10.5t-12.5 -38.5q-1 -23 14.5 -36.5t37.5 -13.5q24 0 34 11.5t10 36.5z" />
<glyph unicode="&#xa2;" horiz-adv-x="335" d="M316 336q0 -8 -9 -10t-49 -2q-34 0 -42 1t-8 7q0 19 -10 31t-28 12q-38 0 -38 -61v-148q0 -60 38 -60q21 0 29.5 13.5t8.5 29.5q0 4 3 6t14.5 3t35.5 1q37 0 46 -2.5t9 -12.5q0 -54 -24.5 -88.5t-61.5 -47.5q-5 -2 -5 -12v-51q0 -14 -56 -14q-50 0 -50 13v52q0 10 -5 12 q-39 15 -64 50.5t-25 85.5v193q0 96 89 136q5 2 5 13v59q0 13 50 13q57 0 57 -12v-62q0 -11 4 -13q86 -31 86 -135z" />
<glyph unicode="&#xa3;" horiz-adv-x="343" d="M140 418q0 -22 6 -26t22 -4h43q10 0 14.5 -9.5t4.5 -39.5t-4 -39t-15 -9h-39q-19 0 -25 -3q-7 -5 -7 -29v-122q0 -32 5 -35q7 -4 30 -4h129q10 0 14.5 -9t4.5 -39q0 -32 -4 -41t-14 -9h-226q-35 0 -40 4q-6 5 -6 34v521q0 59 40 100t105 41q67 0 104.5 -41t37.5 -100v-51 q0 -6 -3 -9t-15.5 -5t-36.5 -2q-32 0 -41 4t-9 14v45q0 14 -9.5 28t-27.5 14q-19 0 -28.5 -17t-9.5 -40v-122z" />
<glyph unicode="&#xa5;" horiz-adv-x="272" d="M139 383q48 -2 80 -37t32 -84q0 -27 -3 -44.5t-13 -38.5t-34 -33.5t-62 -17.5q-51 -6 -87.5 39t-30.5 101q6 57 29.5 87.5t88.5 27.5z" />
<glyph unicode="&#xa7;" horiz-adv-x="357" d="M33 14v553q0 58 42 95.5t103 37.5q63 0 104.5 -37t41.5 -97v-113q0 -25 -19 -52q-5 -6 -11 -11t-12 -9t-8 -6l12 -8q12 -8 19 -16q19 -32 19 -61v-142q0 -68 -39 -108t-104 -40q-7 0 -8.5 9.5t-1.5 43.5q0 52 10 52q40 0 40 63v109q0 23 -11.5 40.5t-31.5 17.5 q-6 0 -7.5 6t-1.5 31q0 39 9 39q21 0 32 16.5t11 39.5v78q0 24 -10.5 38.5t-30.5 14.5q-40 0 -40 -54v-530q0 -13 -50 -15q-57 -2 -57 15z" />
<glyph unicode="&#xa9;" horiz-adv-x="554" d="M277 701q101 0 172.5 -71t71.5 -172t-71.5 -171.5t-172.5 -70.5t-172 70.5t-71 171.5q0 100 71 171.5t172 71.5zM88 459q0 -79 56 -134t135 -55t134.5 55t55.5 134t-55.5 135t-134.5 56t-135 -56t-56 -135zM279 552q-13 0 -26.5 -9.5t-13.5 -27.5v-105q0 -17 12 -26 t28 -9q15 0 27 8.5t12 25.5q0 4 22 4q21 0 22 -1t1 -3q0 -35 -25.5 -59.5t-58.5 -24.5t-58.5 22.5t-25.5 61.5v106q0 39 27 61.5t57 22.5q31 0 57.5 -23t26.5 -57q0 -7 -23 -7q-22 0 -22 3q0 17 -12.5 27t-26.5 10z" />
<glyph unicode="&#xaa;" horiz-adv-x="330" d="M127 701q4 0 4 -19t-3 -19h-9t-8 0.5t-6 0t-5 -0.5t-3.5 -1.5t-2 -3t-0.5 -4.5v-192q0 -6 -20 -6q-18 0 -18 5v191q0 3 -0.5 5t-2 3.5t-2.5 2t-4 0.5h-5h-6h-7q-6 0 -7.5 3.5t-1.5 16.5q0 18 10 18h97zM262 584q0 19 -8 -7q-3 -9 -9 -32q-4 -15 -6 -20q-2 -7 -11 -7 t-11 8q-18 61 -21 61q-2 0 -2 -7v-118q0 -6 -20 -6q-19 0 -19 5v229q0 11 20 11q7 0 11 -1.5t5 -4t3 -8.5q30 -101 34 -101t34 104q3 11 19 11q11 0 15 -3t4 -11v-225q0 -6 -19 -6t-19 5v123z" />
<glyph unicode="&#xab;" horiz-adv-x="341" d="M106 623q41 16 98 43q29 13 34 0q17 -38 18 -39q10 -14 -13 -28l-56.5 -25l-76.5 -35q-21 -9 -23 7q-4 18 -16 43q-4 7 6 16.5t29 17.5z" />
<glyph unicode="&#xac;" horiz-adv-x="341" d="M42 598q-1 24 12.5 41.5t38.5 14.5q30 -3 39.5 -17t8.5 -39q0 -50 -48 -54q-26 -3 -38.5 13t-12.5 41zM202 598q-1 24 12.5 41.5t38.5 14.5q30 -3 39.5 -16.5t9.5 -39.5q0 -50 -49 -54q-26 -3 -38.5 13t-12.5 41z" />
<glyph unicode="&#xad;" d="M80 417v145q0 9 10.5 18.5t18.5 9.5h42q7 0 7 7v88q0 15 40 15q25 0 32.5 -2.5t7.5 -13.5v-86q0 -8 9 -8h44q10 0 17.5 -8.5t7.5 -21.5v-146q0 -5 0.5 -7.5t3 -4t8.5 -1.5h43q11 0 13 -6t2 -36q0 -33 -5 -36q-2 -2 -8 -2h-44q-9 0 -11 -2.5t-2 -10.5v-167q0 -31 -22 -31 h-49q-7 0 -7 -9v-86q0 -11 -6 -13t-34 -2q-35 0 -38 5q-2 2 -2 8v90q0 7 -6 7h-46q-11 0 -18.5 8.5t-7.5 18.5v171v6.5t-1.5 3.5t-4 2.5t-7.5 0.5h-42q-10 0 -12.5 6.5t-2.5 31.5q0 29 2.5 35.5t13.5 6.5h42q9 0 10.5 3.5t1.5 12.5zM218 186q17 0 17 17v295q0 15 -15 15h-44 q-15 0 -15 -15v-295q0 -17 17 -17h40z" />
<glyph unicode="&#xae;" horiz-adv-x="482" d="M253 0q-41 0 -41 18v143q0 9 -29 9h-10.5h-9.5t-6.5 -0.5t-5 -2t-2.5 -4.5q-6 -29 -10.5 -76.5t-9.5 -76.5q-2 -10 -65 -10h-15t-15.5 1t-14.5 3t-4 5l122 663q2 13 7 20q6 8 23 8h282q9 0 10.5 -8t1.5 -39q0 -51 -13 -51h-100q-19 0 -23 -5q-5 -7 -5 -19v-132 q0 -22 6 -26t22 -4h48q9 0 11 -8t2 -42q0 -48 -13 -48h-45q-19 0 -25 -3q-7 -5 -7 -29v-149q0 -32 5 -35q7 -4 30 -4h95q9 0 11 -7.5t2 -40.5q0 -34 -2 -42t-10 -8h-197zM213 482q0 2 0.5 14t1 26.5t0.5 29t-0.5 24t-2.5 9.5q-3 0 -6 -11.5t-6 -24.5l-2 -13 q-3 -16 -19.5 -147t-19.5 -144q0 -2 2 -3.5t7 -2t8.5 -0.5h11.5q4 0 11.5 -1t10.5 -0.5t3 4.5v240z" />
<glyph unicode="&#xaf;" horiz-adv-x="357" d="M36 105q0 2 -0.5 6.5l-1.5 13.5t-1 19v413q0 64 41 103.5t104 39.5q18 0 35 -3.5t26 -6.5t11 -2t29 69q5 14 50 14q22 0 36.5 -5t11.5 -15q-49 -131 -55 -151q-1 -5 -0.5 -11t1.5 -16.5t1 -15.5v-413q0 -65 -37.5 -104.5t-108.5 -39.5q-17 0 -72 11q-1 0 -3.5 -4t-6 -12 l-6.5 -15.5t-7 -18.5t-6 -15q-6 -16 -59 -16q-9 0 -15 0.5t-13 2t-10 4.5t-1 8zM216 537q0 60 -38 60t-38 -60v-371q0 -14 1 -22t4 -18t11.5 -15t21.5 -5q38 0 38 60v371z" />
<glyph unicode="&#xb0;" d="M80 417v145q0 9 10.5 18.5t18.5 9.5h42q7 0 7 7v88q0 15 40 15q25 0 32.5 -2.5t7.5 -13.5v-86q0 -8 9 -8h44q10 0 17.5 -8.5t7.5 -21.5v-146q0 -5 0.5 -7.5t3 -4t8.5 -1.5h43q11 0 13 -6t2 -36q0 -33 -5 -36q-2 -2 -8 -2h-44q-9 0 -11 -2.5t-2 -10.5v-167q0 -31 -22 -31 h-49q-7 0 -7 -9v-86q0 -11 -6 -13t-34 -2q-35 0 -38 5q-2 2 -2 8v90q0 7 -6 7h-46q-11 0 -18.5 8.5t-7.5 18.5v171v6.5t-1.5 3.5t-4 2.5t-7.5 0.5h-42q-10 0 -12.5 6.5t-2.5 31.5q0 29 2.5 35.5t13.5 6.5h42q9 0 10.5 3.5t1.5 12.5zM218 186q17 0 17 17v295q0 15 -15 15h-44 q-15 0 -15 -15v-295q0 -17 17 -17h40z" />
<glyph unicode="&#xb1;" d="M80 417v145q0 9 10.5 18.5t18.5 9.5h42q7 0 7 7v88q0 15 40 15q25 0 32.5 -2.5t7.5 -13.5v-86q0 -8 9 -8h44q10 0 17.5 -8.5t7.5 -21.5v-146q0 -5 0.5 -7.5t3 -4t8.5 -1.5h43q11 0 13 -6t2 -36q0 -33 -5 -36q-2 -2 -8 -2h-44q-9 0 -11 -2.5t-2 -10.5v-167q0 -31 -22 -31 h-49q-7 0 -7 -9v-86q0 -11 -6 -13t-34 -2q-35 0 -38 5q-2 2 -2 8v90q0 7 -6 7h-46q-11 0 -18.5 8.5t-7.5 18.5v171v6.5t-1.5 3.5t-4 2.5t-7.5 0.5h-42q-10 0 -12.5 6.5t-2.5 31.5q0 29 2.5 35.5t13.5 6.5h42q9 0 10.5 3.5t1.5 12.5zM218 186q17 0 17 17v295q0 15 -15 15h-44 q-15 0 -15 -15v-295q0 -17 17 -17h40z" />
<glyph unicode="&#xb2;" d="M80 417v145q0 9 10.5 18.5t18.5 9.5h42q7 0 7 7v88q0 15 40 15q25 0 32.5 -2.5t7.5 -13.5v-86q0 -8 9 -8h44q10 0 17.5 -8.5t7.5 -21.5v-146q0 -5 0.5 -7.5t3 -4t8.5 -1.5h43q11 0 13 -6t2 -36q0 -33 -5 -36q-2 -2 -8 -2h-44q-9 0 -11 -2.5t-2 -10.5v-167q0 -31 -22 -31 h-49q-7 0 -7 -9v-86q0 -11 -6 -13t-34 -2q-35 0 -38 5q-2 2 -2 8v90q0 7 -6 7h-46q-11 0 -18.5 8.5t-7.5 18.5v171v6.5t-1.5 3.5t-4 2.5t-7.5 0.5h-42q-10 0 -12.5 6.5t-2.5 31.5q0 29 2.5 35.5t13.5 6.5h42q9 0 10.5 3.5t1.5 12.5zM218 186q17 0 17 17v295q0 15 -15 15h-44 q-15 0 -15 -15v-295q0 -17 17 -17h40z" />
<glyph unicode="&#xb3;" d="M80 417v145q0 9 10.5 18.5t18.5 9.5h42q7 0 7 7v88q0 15 40 15q25 0 32.5 -2.5t7.5 -13.5v-86q0 -8 9 -8h44q10 0 17.5 -8.5t7.5 -21.5v-146q0 -5 0.5 -7.5t3 -4t8.5 -1.5h43q11 0 13 -6t2 -36q0 -33 -5 -36q-2 -2 -8 -2h-44q-9 0 -11 -2.5t-2 -10.5v-167q0 -31 -22 -31 h-49q-7 0 -7 -9v-86q0 -11 -6 -13t-34 -2q-35 0 -38 5q-2 2 -2 8v90q0 7 -6 7h-46q-11 0 -18.5 8.5t-7.5 18.5v171v6.5t-1.5 3.5t-4 2.5t-7.5 0.5h-42q-10 0 -12.5 6.5t-2.5 31.5q0 29 2.5 35.5t13.5 6.5h42q9 0 10.5 3.5t1.5 12.5zM218 186q17 0 17 17v295q0 15 -15 15h-44 q-15 0 -15 -15v-295q0 -17 17 -17h40z" />
<glyph unicode="&#xb5;" d="M80 417v145q0 9 10.5 18.5t18.5 9.5h42q7 0 7 7v88q0 15 40 15q25 0 32.5 -2.5t7.5 -13.5v-86q0 -8 9 -8h44q10 0 17.5 -8.5t7.5 -21.5v-146q0 -5 0.5 -7.5t3 -4t8.5 -1.5h43q11 0 13 -6t2 -36q0 -33 -5 -36q-2 -2 -8 -2h-44q-9 0 -11 -2.5t-2 -10.5v-167q0 -31 -22 -31 h-49q-7 0 -7 -9v-86q0 -11 -6 -13t-34 -2q-35 0 -38 5q-2 2 -2 8v90q0 7 -6 7h-46q-11 0 -18.5 8.5t-7.5 18.5v171v6.5t-1.5 3.5t-4 2.5t-7.5 0.5h-42q-10 0 -12.5 6.5t-2.5 31.5q0 29 2.5 35.5t13.5 6.5h42q9 0 10.5 3.5t1.5 12.5zM218 186q17 0 17 17v295q0 15 -15 15h-44 q-15 0 -15 -15v-295q0 -17 17 -17h40z" />
<glyph unicode="&#xb6;" d="M80 417v145q0 9 10.5 18.5t18.5 9.5h42q7 0 7 7v88q0 15 40 15q25 0 32.5 -2.5t7.5 -13.5v-86q0 -8 9 -8h44q10 0 17.5 -8.5t7.5 -21.5v-146q0 -5 0.5 -7.5t3 -4t8.5 -1.5h43q11 0 13 -6t2 -36q0 -33 -5 -36q-2 -2 -8 -2h-44q-9 0 -11 -2.5t-2 -10.5v-167q0 -31 -22 -31 h-49q-7 0 -7 -9v-86q0 -11 -6 -13t-34 -2q-35 0 -38 5q-2 2 -2 8v90q0 7 -6 7h-46q-11 0 -18.5 8.5t-7.5 18.5v171v6.5t-1.5 3.5t-4 2.5t-7.5 0.5h-42q-10 0 -12.5 6.5t-2.5 31.5q0 29 2.5 35.5t13.5 6.5h42q9 0 10.5 3.5t1.5 12.5zM218 186q17 0 17 17v295q0 15 -15 15h-44 q-15 0 -15 -15v-295q0 -17 17 -17h40z" />
<glyph unicode="&#xb7;" d="M80 417v145q0 9 10.5 18.5t18.5 9.5h42q7 0 7 7v88q0 15 40 15q25 0 32.5 -2.5t7.5 -13.5v-86q0 -8 9 -8h44q10 0 17.5 -8.5t7.5 -21.5v-146q0 -5 0.5 -7.5t3 -4t8.5 -1.5h43q11 0 13 -6t2 -36q0 -33 -5 -36q-2 -2 -8 -2h-44q-9 0 -11 -2.5t-2 -10.5v-167q0 -31 -22 -31 h-49q-7 0 -7 -9v-86q0 -11 -6 -13t-34 -2q-35 0 -38 5q-2 2 -2 8v90q0 7 -6 7h-46q-11 0 -18.5 8.5t-7.5 18.5v171v6.5t-1.5 3.5t-4 2.5t-7.5 0.5h-42q-10 0 -12.5 6.5t-2.5 31.5q0 29 2.5 35.5t13.5 6.5h42q9 0 10.5 3.5t1.5 12.5zM218 186q17 0 17 17v295q0 15 -15 15h-44 q-15 0 -15 -15v-295q0 -17 17 -17h40z" />
<glyph unicode="&#xb9;" d="M80 417v145q0 9 10.5 18.5t18.5 9.5h42q7 0 7 7v88q0 15 40 15q25 0 32.5 -2.5t7.5 -13.5v-86q0 -8 9 -8h44q10 0 17.5 -8.5t7.5 -21.5v-146q0 -5 0.5 -7.5t3 -4t8.5 -1.5h43q11 0 13 -6t2 -36q0 -33 -5 -36q-2 -2 -8 -2h-44q-9 0 -11 -2.5t-2 -10.5v-167q0 -31 -22 -31 h-49q-7 0 -7 -9v-86q0 -11 -6 -13t-34 -2q-35 0 -38 5q-2 2 -2 8v90q0 7 -6 7h-46q-11 0 -18.5 8.5t-7.5 18.5v171v6.5t-1.5 3.5t-4 2.5t-7.5 0.5h-42q-10 0 -12.5 6.5t-2.5 31.5q0 29 2.5 35.5t13.5 6.5h42q9 0 10.5 3.5t1.5 12.5zM218 186q17 0 17 17v295q0 15 -15 15h-44 q-15 0 -15 -15v-295q0 -17 17 -17h40z" />
<glyph unicode="&#xba;" d="M80 417v145q0 9 10.5 18.5t18.5 9.5h42q7 0 7 7v88q0 15 40 15q25 0 32.5 -2.5t7.5 -13.5v-86q0 -8 9 -8h44q10 0 17.5 -8.5t7.5 -21.5v-146q0 -5 0.5 -7.5t3 -4t8.5 -1.5h43q11 0 13 -6t2 -36q0 -33 -5 -36q-2 -2 -8 -2h-44q-9 0 -11 -2.5t-2 -10.5v-167q0 -31 -22 -31 h-49q-7 0 -7 -9v-86q0 -11 -6 -13t-34 -2q-35 0 -38 5q-2 2 -2 8v90q0 7 -6 7h-46q-11 0 -18.5 8.5t-7.5 18.5v171v6.5t-1.5 3.5t-4 2.5t-7.5 0.5h-42q-10 0 -12.5 6.5t-2.5 31.5q0 29 2.5 35.5t13.5 6.5h42q9 0 10.5 3.5t1.5 12.5zM218 186q17 0 17 17v295q0 15 -15 15h-44 q-15 0 -15 -15v-295q0 -17 17 -17h40z" />
<glyph unicode="&#xbb;" horiz-adv-x="180" d="M139 513q0 -5 -18 -5q-15 0 -18.5 1t-3.5 6v6q-1 0 -3 -1q-12 -12 -21 -12q-23 0 -37.5 15t-14.5 43v78q0 30 15.5 43.5t36.5 13.5q13 0 20 -9q3 0 4 4q0 5 12 5h9q19 0 19 -4v-184zM29 441q-9 0 -9 23q0 20 10 20h108q4 0 4 -21q0 -22 -3 -22h-110zM94 635q0 21 -14 21 q-13 0 -13 -21v-59q0 -22 13 -22q14 0 14 22v59z" />
<glyph unicode="&#xbf;" horiz-adv-x="341" d="M201 480q3 2 7 11t8.5 24t7.5 21q5 14 50 14q22 0 36.5 -5t11.5 -15q-3 -7 -14.5 -36.5t-16.5 -44.5t-3 -18q29 -52 28 -93v-194q0 -70 -39.5 -107t-106.5 -37q-6 0 -21.5 2t-20.5 1q-2 0 -30 -73q-6 -16 -59 -16q-9 0 -15 0.5t-13 2t-10 4.5t-1 8q46 128 45 131 q-20 37 -20 84v194q0 64 41 103.5t104 39.5q6 0 13.5 -1t10 -1.5t7.5 1.5zM210 173v138q0 66 -40 66t-40 -66v-138q0 -67 40 -67t40 67z" />
<glyph unicode="&#xc0;" horiz-adv-x="330" d="M229 296q0 -10 1 -38t0 -39.5t-5 -31t-13 -36.5q-10 -19 -35.5 -51t-33.5 -50q-11 -29 -11 -96q0 -52 39 -52q34 0 34 52v35q0 13 55 13q49 0 49 -14v-56q0 -56 -38 -94t-101 -38q-66 0 -104 36.5t-38 94.5v74q0 46 15 77.5t45 66.5q9 10 15.5 19.5t10 21t6 18.5 t3.5 21.5t1 20v24.5v25q0 16 55 14h19.5t14 -1.5t13 -5.5t3.5 -10zM235 450q3 -28 -15 -50.5t-43 -18.5q-29 2 -42 11.5t-13 23.5v31q2 24 17 41t38 18q32 2 43.5 -13t14.5 -43z" />
<glyph unicode="&#xc1;" horiz-adv-x="177" d="M36 293q0 12 8.5 15t47.5 3q36 0 43.5 -2.5t7.5 -13.5v-477q0 -12 -8 -15t-43 -3q-40 0 -48 2.5t-8 16.5v474zM148 447q3 -29 -15.5 -52.5t-44.5 -19.5q-30 3 -43.5 12.5t-13.5 23.5v32q2 25 17.5 42t39.5 18q33 2 45 -13t15 -43z" />
<glyph unicode="&#xc2;" d="M80 417v145q0 9 10.5 18.5t18.5 9.5h42q7 0 7 7v88q0 15 40 15q25 0 32.5 -2.5t7.5 -13.5v-86q0 -8 9 -8h44q10 0 17.5 -8.5t7.5 -21.5v-146q0 -5 0.5 -7.5t3 -4t8.5 -1.5h43q11 0 13 -6t2 -36q0 -33 -5 -36q-2 -2 -8 -2h-44q-9 0 -11 -2.5t-2 -10.5v-167q0 -31 -22 -31 h-49q-7 0 -7 -9v-86q0 -11 -6 -13t-34 -2q-35 0 -38 5q-2 2 -2 8v90q0 7 -6 7h-46q-11 0 -18.5 8.5t-7.5 18.5v171v6.5t-1.5 3.5t-4 2.5t-7.5 0.5h-42q-10 0 -12.5 6.5t-2.5 31.5q0 29 2.5 35.5t13.5 6.5h42q9 0 10.5 3.5t1.5 12.5zM218 186q17 0 17 17v295q0 15 -15 15h-44 q-15 0 -15 -15v-295q0 -17 17 -17h40z" />
<glyph unicode="&#xc3;" d="M80 417v145q0 9 10.5 18.5t18.5 9.5h42q7 0 7 7v88q0 15 40 15q25 0 32.5 -2.5t7.5 -13.5v-86q0 -8 9 -8h44q10 0 17.5 -8.5t7.5 -21.5v-146q0 -5 0.5 -7.5t3 -4t8.5 -1.5h43q11 0 13 -6t2 -36q0 -33 -5 -36q-2 -2 -8 -2h-44q-9 0 -11 -2.5t-2 -10.5v-167q0 -31 -22 -31 h-49q-7 0 -7 -9v-86q0 -11 -6 -13t-34 -2q-35 0 -38 5q-2 2 -2 8v90q0 7 -6 7h-46q-11 0 -18.5 8.5t-7.5 18.5v171v6.5t-1.5 3.5t-4 2.5t-7.5 0.5h-42q-10 0 -12.5 6.5t-2.5 31.5q0 29 2.5 35.5t13.5 6.5h42q9 0 10.5 3.5t1.5 12.5zM218 186q17 0 17 17v295q0 15 -15 15h-44 q-15 0 -15 -15v-295q0 -17 17 -17h40z" />
<glyph unicode="&#xc4;" horiz-adv-x="235" d="M156 -9q0 -52 -10.5 -89t-43.5 -64q-46 -38 -109 -38q-7 0 -8 8.5t-1 43.5q0 51 10 51q13 0 33 16q7 5 11.5 13t7 15t3.5 18t1 16.5v17v12.5v347q0 12 -4.5 15t-23.5 3q-9 0 -10.5 5.5t-1.5 37.5q0 33 1.5 42t8.5 9q26 0 29 9q1 10 1 56t11.5 77.5t42.5 56.5 q39 31 110 31q8 0 8 -35v-17q0 -33 -2 -42t-8 -9q-25 0 -43 -25q-13 -17 -13 -59q0 -25 2 -34t55 -9q8 0 10 -9t2 -43q0 -24 -1.5 -33t-3 -9.5t-8.5 -0.5q-39 0 -47.5 -2.5t-8.5 -14.5v-367z" />
<glyph unicode="&#xc5;" d="M80 417v145q0 9 10.5 18.5t18.5 9.5h42q7 0 7 7v88q0 15 40 15q25 0 32.5 -2.5t7.5 -13.5v-86q0 -8 9 -8h44q10 0 17.5 -8.5t7.5 -21.5v-146q0 -5 0.5 -7.5t3 -4t8.5 -1.5h43q11 0 13 -6t2 -36q0 -33 -5 -36q-2 -2 -8 -2h-44q-9 0 -11 -2.5t-2 -10.5v-167q0 -31 -22 -31 h-49q-7 0 -7 -9v-86q0 -11 -6 -13t-34 -2q-35 0 -38 5q-2 2 -2 8v90q0 7 -6 7h-46q-11 0 -18.5 8.5t-7.5 18.5v171v6.5t-1.5 3.5t-4 2.5t-7.5 0.5h-42q-10 0 -12.5 6.5t-2.5 31.5q0 29 2.5 35.5t13.5 6.5h42q9 0 10.5 3.5t1.5 12.5zM218 186q17 0 17 17v295q0 15 -15 15h-44 q-15 0 -15 -15v-295q0 -17 17 -17h40z" />
<glyph unicode="&#xc6;" d="M80 417v145q0 9 10.5 18.5t18.5 9.5h42q7 0 7 7v88q0 15 40 15q25 0 32.5 -2.5t7.5 -13.5v-86q0 -8 9 -8h44q10 0 17.5 -8.5t7.5 -21.5v-146q0 -5 0.5 -7.5t3 -4t8.5 -1.5h43q11 0 13 -6t2 -36q0 -33 -5 -36q-2 -2 -8 -2h-44q-9 0 -11 -2.5t-2 -10.5v-167q0 -31 -22 -31 h-49q-7 0 -7 -9v-86q0 -11 -6 -13t-34 -2q-35 0 -38 5q-2 2 -2 8v90q0 7 -6 7h-46q-11 0 -18.5 8.5t-7.5 18.5v171v6.5t-1.5 3.5t-4 2.5t-7.5 0.5h-42q-10 0 -12.5 6.5t-2.5 31.5q0 29 2.5 35.5t13.5 6.5h42q9 0 10.5 3.5t1.5 12.5zM218 186q17 0 17 17v295q0 15 -15 15h-44 q-15 0 -15 -15v-295q0 -17 17 -17h40z" />
<glyph unicode="&#xc7;" horiz-adv-x="315" d="M120 415q3 -2 14.5 -9t17.5 -9q16 -4 5 -24q-69 -119 -69 -126q0 -10 68 -125q11 -20 -5 -24q-6 -2 -19 -10t-16 -10q-9 -6 -28 25q-22 35 -50 86t-28 59t29.5 58t52.5 84q19 31 28 25zM257 415q3 -2 14.5 -9t17.5 -9q16 -4 5 -24q-69 -119 -69 -126q0 -10 68 -125 q11 -20 -5 -24q-6 -2 -19 -10t-16 -10q-10 -6 -27 25q-21 31 -50 83.5t-29 60.5t28.5 57t52.5 85q19 33 29 26z" />
<glyph unicode="&#xc8;" horiz-adv-x="315" d="M196 78q-4 2 -15 9.5t-17 9.5q-17 4 -5 24q68 117 68 125q0 9 -67 126q-12 20 5 24q6 2 19 10t16 10q9 5 26 -24q80 -128 80 -146q0 -8 -32 -62t-53 -84q-17 -27 -25 -22zM57 78q-4 2 -15 9.5t-17 9.5q-17 4 -5 24q68 117 68 125q0 9 -67 126q-12 20 5 24q6 2 19 10 t16 10q10 6 24 -22q21 -32 51.5 -86t30.5 -62t-32.5 -62t-53.5 -85q-16 -26 -24 -21z" />
<glyph unicode="&#xc9;" horiz-adv-x="483" d="M360 50q0 24 12.5 40t37.5 13q48 -3 48 -53q1 -25 -8.5 -38.5t-39.5 -16.5q-24 -3 -37.5 14.5t-12.5 40.5zM187 50q0 24 12.5 40t37.5 13q48 -3 48 -53q1 -25 -8.5 -38.5t-39.5 -16.5q-24 -3 -37.5 14.5t-12.5 40.5zM25 50q0 25 12 40.5t38 12.5q47 -3 47 -53 q1 -25 -8 -38.5t-39 -16.5q-24 -3 -38 14.5t-12 40.5z" />
<glyph unicode="&#xcb;" horiz-adv-x="333" d="M119 10q-1 -10 -48 -10h-7q-50 0 -49 9l96 677q2 15 52 15q52 0 54 -18l101 -673q1 -4 -2.5 -6t-12.5 -3t-15 -1h-19h-6q-41 0 -47 5q-2 3 -3 7q-4 27 -10 74t-10 75q0 2 -1 3.5t-2.5 2.5t-3 1.5t-4.5 0.5h-5h-6.5h-6.5h-8q-21 0 -22 -8q-10 -95 -15 -151zM143 252 q-1 -5 3.5 -6.5t16.5 -1.5h6h7t5 0.5t3 2t1 4.5q-10 154 -13 195q0 27 -9 27q-7 0 -7 -29q-2 -39 -6.5 -99.5t-6.5 -92.5zM255 779q-13 -32 -15 -43q-4 -16 -24 -7q-1 0 -133 60q-21 16 -12 28q5 7 17 39q5 13 34 0l98 -43q19 -8 29 -17.5t6 -16.5z" />
<glyph unicode="&#xcc;" horiz-adv-x="333" d="M119 10q-1 -10 -48 -10h-7q-50 0 -49 9l96 677q2 15 52 15q52 0 54 -18l101 -673q1 -4 -2.5 -6t-12.5 -3t-15 -1h-19h-6q-41 0 -47 5q-2 3 -3 7q-4 27 -10 74t-10 75q0 2 -1 3.5t-2.5 2.5t-3 1.5t-4.5 0.5h-5h-6.5h-6.5h-8q-21 0 -22 -8q-10 -95 -15 -151zM143 252 q-1 -5 3.5 -6.5t16.5 -1.5h6h7t5 0.5t3 2t1 4.5q-10 154 -13 195q0 27 -9 27q-7 0 -7 -29q-2 -39 -6.5 -99.5t-6.5 -92.5zM166 740q-19 19 -30 19q-4 0 -7.5 -1.5t-6 -3.5t-10 -9l-15.5 -14q-8 -6 -15 -4t-9 9l-19 39q-6 10 38 40q30 20 43 20q24 0 36 -11l9.5 -9.5l8 -8 t5.5 -4t7 -1.5q8 0 37 29q9 8 15.5 5.5t8.5 -10.5q1 -3 19 -39v-6t-5 -7t-9 -8l-11.5 -9l-12.5 -10q-22 -18 -41 -18q-24 0 -36 12z" />
<glyph unicode="&#xcd;" horiz-adv-x="357" d="M321 144q0 -65 -37.5 -104.5t-108.5 -39.5q-67 0 -106 40.5t-39 103.5v413q0 64 41 103.5t104 39.5q65 0 105.5 -39t40.5 -104v-413zM213 537q0 60 -38 60t-38 -60v-371q0 -14 1 -22t4 -18t11.5 -15t21.5 -5q38 0 38 60v371zM179 740q-19 19 -30 19q-4 0 -7.5 -1.5 t-6 -3.5t-10 -9l-15.5 -14q-8 -6 -15 -4t-9 9l-19 39q-6 10 38 40q30 20 43 20q24 0 36 -11l9.5 -9.5l8 -8t5.5 -4t7 -1.5q8 0 37 29q9 8 15.5 5.5t8.5 -10.5q1 -3 19 -39v-6t-5 -7t-9 -8l-11.5 -9l-12.5 -10q-22 -18 -41 -18q-24 0 -36 12z" />
<glyph unicode="&#xce;" horiz-adv-x="486" d="M253 680q1 0 20 10t49 10h131q9 0 10.5 -8t1.5 -39q0 -51 -13 -51h-100q-19 0 -23 -5q-5 -7 -5 -19v-132q0 -22 6 -26t22 -4h48q9 0 11 -8t2 -42q0 -48 -13 -48h-45q-19 0 -25 -3q-7 -5 -7 -29v-149q0 -32 5 -35q7 -4 30 -4h95q9 0 11 -7.5t2 -40.5q0 -34 -2 -42t-10 -8 h-133q-29 0 -48 10t-20 10t-21.5 -10t-53.5 -10q-67 0 -106 40.5t-39 103.5v413q0 64 41 103.5t104 39.5q33 0 53.5 -10t21.5 -10zM216 537q0 60 -38 60t-38 -60v-371q0 -14 1 -22t4 -18t11.5 -15t21.5 -5q38 0 38 60v371z" />
<glyph unicode="&#xcf;" horiz-adv-x="525" d="M263 445q2 0 13.5 9t32 18t46.5 9q64 0 104.5 -39t40.5 -104v-104v-6.5t-2 -4.5t-6 -3.5t-12 -0.5h-152q-14 0 -14 -16q0 -36 1 -54q0 -43 40 -43t40 46q0 6 50 6q36 0 45.5 -2t9.5 -12q0 -70 -39 -107t-106 -37q-27 0 -47 8.5t-30 17t-14 8.5q-3 0 -13 -8.5t-31 -17 t-50 -8.5q-64 0 -104.5 39t-40.5 105v194q0 64 41 103.5t104 39.5q28 0 49 -9t31.5 -18t12.5 -9zM354 377q-39 0 -39 -45v-25q0 -15 38 -15q40 0 40 13v27q0 45 -39 45zM210 173v138q0 66 -40 66t-40 -66v-138q0 -67 40 -67t40 67z" />
<glyph unicode="&#xd0;" horiz-adv-x="500" d="M485 275q0 -35 3 -46q2 -7 -4 -11.5t-20 -4.5q-36 0 -214.5 0.5t-204.5 0.5q-9 0 -21.5 4.5t-10.5 14.5q3 13 0 43q0 6 6.5 9.5t15.5 4.5t21 1h378q51 2 51 -16z" />
<glyph unicode="&#xd1;" horiz-adv-x="785" d="M772 275q0 -35 3 -46q2 -7 -4 -11t-20 -4h-706q-9 0 -21.5 4.5t-10.5 14.5q3 13 0 43q0 6 6.5 9.5t15.5 4.5t21 1h665q51 2 51 -16z" />
<glyph unicode="&#xd2;" horiz-adv-x="286" d="M82 487q-26 0 -41.5 15t-15.5 39q0 40 11 69q8 21 17 39.5t25.5 36t31.5 15.5q6 -1 7.5 -8t-0.5 -17.5t-5 -20.5t-7 -21t-5 -16q-2 -8 0.5 -12.5t9 -8.5t8.5 -5q15 -12 15 -40q0 -29 -13 -47.5t-38 -17.5zM210 487q-26 0 -41.5 15t-16.5 39q0 40 11 69q8 21 17.5 39.5 t25.5 36t31 15.5q6 -1 7.5 -8t-0.5 -17.5t-5 -20.5l-6.5 -21t-4.5 -16q-2 -8 0 -12.5t9 -8.5t8 -5q16 -13 16 -40q0 -29 -13 -47.5t-38 -17.5z" />
<glyph unicode="&#xd3;" horiz-adv-x="286" d="M203 700q26 0 41.5 -15t16.5 -39q0 -40 -11 -68q-8 -21 -17.5 -39.5t-25.5 -36.5t-31 -15q-6 1 -7.5 7.5t0.5 17t5 20.5l6.5 21.5t4.5 16.5q2 8 0 12t-8.5 8t-8.5 5q-16 13 -16 40q0 29 13 47.5t38 17.5zM76 700q26 0 41.5 -15t15.5 -39q0 -40 -11 -68q-8 -22 -17 -40 t-25.5 -36t-31.5 -15q-6 1 -7.5 7.5t0.5 17t5 20.5t7 21.5t5 16.5q2 8 -0.5 12.5t-9 7.5t-8.5 5q-15 12 -15 40q0 29 13 47.5t38 17.5z" />
<glyph unicode="&#xd4;" horiz-adv-x="158" d="M82 487q-26 0 -41.5 15t-15.5 39q0 40 11 69q8 21 17 39.5t25.5 36t31.5 15.5q6 -1 7.5 -8t-0.5 -17.5t-5 -20.5t-7 -21t-5 -16q-2 -8 0.5 -12.5t9 -8.5t8.5 -5q15 -12 15 -40q0 -29 -13 -47.5t-38 -17.5z" />
<glyph unicode="&#xd5;" horiz-adv-x="158" d="M76 701q27 -1 42 -15.5t15 -38.5q0 -40 -11 -69q-8 -21 -17 -39.5t-25.5 -36t-31.5 -15.5q-6 1 -7.5 8t0.5 17.5t5 20.5t7 21t5 16q2 8 -0.5 12.5t-9 8.5t-8.5 5q-15 12 -15 40q0 29 13 47.5t38 17.5z" />
<glyph unicode="&#xd6;" d="M80 417v145q0 9 10.5 18.5t18.5 9.5h42q7 0 7 7v88q0 15 40 15q25 0 32.5 -2.5t7.5 -13.5v-86q0 -8 9 -8h44q10 0 17.5 -8.5t7.5 -21.5v-146q0 -5 0.5 -7.5t3 -4t8.5 -1.5h43q11 0 13 -6t2 -36q0 -33 -5 -36q-2 -2 -8 -2h-44q-9 0 -11 -2.5t-2 -10.5v-167q0 -31 -22 -31 h-49q-7 0 -7 -9v-86q0 -11 -6 -13t-34 -2q-35 0 -38 5q-2 2 -2 8v90q0 7 -6 7h-46q-11 0 -18.5 8.5t-7.5 18.5v171v6.5t-1.5 3.5t-4 2.5t-7.5 0.5h-42q-10 0 -12.5 6.5t-2.5 31.5q0 29 2.5 35.5t13.5 6.5h42q9 0 10.5 3.5t1.5 12.5zM218 186q17 0 17 17v295q0 15 -15 15h-44 q-15 0 -15 -15v-295q0 -17 17 -17h40z" />
<glyph unicode="&#xd7;" d="M80 417v145q0 9 10.5 18.5t18.5 9.5h42q7 0 7 7v88q0 15 40 15q25 0 32.5 -2.5t7.5 -13.5v-86q0 -8 9 -8h44q10 0 17.5 -8.5t7.5 -21.5v-146q0 -5 0.5 -7.5t3 -4t8.5 -1.5h43q11 0 13 -6t2 -36q0 -33 -5 -36q-2 -2 -8 -2h-44q-9 0 -11 -2.5t-2 -10.5v-167q0 -31 -22 -31 h-49q-7 0 -7 -9v-86q0 -11 -6 -13t-34 -2q-35 0 -38 5q-2 2 -2 8v90q0 7 -6 7h-46q-11 0 -18.5 8.5t-7.5 18.5v171v6.5t-1.5 3.5t-4 2.5t-7.5 0.5h-42q-10 0 -12.5 6.5t-2.5 31.5q0 29 2.5 35.5t13.5 6.5h42q9 0 10.5 3.5t1.5 12.5zM218 186q17 0 17 17v295q0 15 -15 15h-44 q-15 0 -15 -15v-295q0 -17 17 -17h40z" />
<glyph unicode="&#xd8;" horiz-adv-x="329" d="M107 36q0 16 -3 31l-94 402q-1 4 3 6t12.5 3t16.5 1.5t20 0.5q51 0 53 -14q8 -52 22 -131.5t21 -124.5q0 -10 6 -10q4 0 7 11q35 194 45 257q2 12 55 12q52 0 48 -14l-161 -653q-3 -13 -48 -13q-10 0 -16.5 0.5t-14.5 2t-11.5 5t-2.5 8.5l39 187q3 13 3 33zM25 598 q-1 24 12.5 41.5t38.5 14.5q30 -3 39.5 -17t8.5 -39q0 -50 -48 -54q-26 -3 -38.5 13t-12.5 41zM185 598q-1 24 12.5 41.5t38.5 14.5q30 -3 39.5 -16.5t9.5 -39.5q0 -50 -49 -54q-26 -3 -38.5 13t-12.5 41z" />
<glyph unicode="&#xd9;" horiz-adv-x="318" d="M107 243q0 33 -3 49q-1 6 -3 15.5t-5.5 23l-5.5 21.5q-52 225 -75 333q-1 5 3 8t12 4t15 1.5t15 0.5q59 0 61 -16l34 -246q0 -9 6 -9q5 0 5 10q7 51 17.5 134.5t14.5 110.5q2 16 56 16q12 0 19.5 -0.5t15.5 -1.5t11.5 -4t2.5 -8q-47 -220 -72 -327q-2 -9 -4 -20l-4 -22.5 t-3 -16.5q-6 -27 -6 -53v-238q0 -8 -55 -8q-53 0 -53 11q0 39 0.5 113t0.5 119zM29 788q-1 24 12.5 41.5t38.5 14.5q30 -3 39.5 -17t8.5 -39q0 -50 -48 -54q-26 -3 -38.5 13t-12.5 41zM189 788q-1 24 12.5 41.5t38.5 14.5q30 -3 39.5 -16.5t9.5 -39.5q0 -50 -49 -54 q-26 -3 -38.5 13t-12.5 41z" />
<glyph unicode="&#xda;" horiz-adv-x="316" d="M83 16q-6 -16 -59 -16q-9 0 -15 0.5t-13 2t-10 4.5t-1 8l248 672q5 14 50 14q22 0 36.5 -5t11.5 -15z" />
<glyph unicode="&#xdb;" d="M80 417v145q0 9 10.5 18.5t18.5 9.5h42q7 0 7 7v88q0 15 40 15q25 0 32.5 -2.5t7.5 -13.5v-86q0 -8 9 -8h44q10 0 17.5 -8.5t7.5 -21.5v-146q0 -5 0.5 -7.5t3 -4t8.5 -1.5h43q11 0 13 -6t2 -36q0 -33 -5 -36q-2 -2 -8 -2h-44q-9 0 -11 -2.5t-2 -10.5v-167q0 -31 -22 -31 h-49q-7 0 -7 -9v-86q0 -11 -6 -13t-34 -2q-35 0 -38 5q-2 2 -2 8v90q0 7 -6 7h-46q-11 0 -18.5 8.5t-7.5 18.5v171v6.5t-1.5 3.5t-4 2.5t-7.5 0.5h-42q-10 0 -12.5 6.5t-2.5 31.5q0 29 2.5 35.5t13.5 6.5h42q9 0 10.5 3.5t1.5 12.5zM218 186q17 0 17 17v295q0 15 -15 15h-44 q-15 0 -15 -15v-295q0 -17 17 -17h40z" />
<glyph unicode="&#xdc;" horiz-adv-x="177" d="M120 415q3 -2 14.5 -9t17.5 -9q16 -4 5 -24q-69 -119 -69 -126q0 -10 68 -125q11 -20 -5 -24q-6 -2 -19 -10t-16 -10q-8 -6 -29 27q-22 35 -49.5 84.5t-27.5 57.5q0 16 83 144q17 31 27 24z" />
<glyph unicode="&#xdd;" horiz-adv-x="177" d="M56 78q-4 2 -14.5 9.5t-16.5 9.5q-17 4 -5 24q68 117 68 125q0 4 -67 126q-12 20 5 24q6 2 18 10t16 10q10 5 28 -26l50 -86t28 -58t-29.5 -58.5t-52.5 -84.5q-18 -30 -28 -25z" />
<glyph unicode="&#xde;" horiz-adv-x="402" d="M50 358q0 12 -4.5 15t-23.5 3q-9 0 -10.5 5.5t-1.5 37.5q0 33 1.5 42t8.5 9q26 0 29 9q1 9 1 55q0 84 52 131q39 35 110 35q8 0 8 -35v-17q0 -33 -2 -42t-8 -9q-29 0 -46 -24q-10 -15 -10 -59q0 -26 2 -35t55 -9q8 0 10 -9t2 -43q0 -24 -1.5 -33t-3 -9.5t-8.5 -0.5 q-39 0 -47.5 -2.5t-8.5 -14.5v-340q0 -13 -7 -15.5t-44 -2.5t-45 2t-8 14v342zM312 678q24 -1 40 -19t18 -44q1 -18 1 -32.5t-14 -24t-45 -12.5q-27 -4 -45.5 19.5t-15.5 52.5t15.5 45t45.5 15zM367 18q0 -13 -7.5 -15.5t-48.5 -2.5q-38 0 -44.5 2t-6.5 14v448q0 12 8 14.5 t43 2.5q40 0 48 -2.5t8 -15.5v-445z" />
<glyph unicode="&#xdf;" horiz-adv-x="402" d="M50 358q0 12 -4.5 15t-23.5 3q-9 0 -10.5 5.5t-1.5 37.5q0 33 1.5 42t8.5 9q26 0 29 9q1 9 1 55q0 84 52 131q39 35 110 35q8 0 8 -35v-17q0 -33 -2 -42t-8 -9q-29 0 -46 -24q-10 -15 -10 -59q0 -26 2 -35t55 -9q8 0 10 -9t2 -43q0 -24 -1.5 -33t-3 -9.5t-8.5 -0.5 q-39 0 -47.5 -2.5t-8.5 -14.5v-340q0 -13 -7 -15.5t-44 -2.5t-45 2t-8 14v342zM363 16q0 -11 -8 -13.5t-48 -2.5q-36 0 -43 2t-7 12v669q0 11 8 13.5t42 2.5q38 0 47 -2.5t9 -14.5v-666z" />
<glyph unicode="&#xe0;" horiz-adv-x="197" d="M34 574q-9 0 -11 6.5t-2 25.5q0 28 14 28q32 0 34 4q2 3 2 9v48q0 7 30 7q31 0 31 -9v-49q0 -4 2.5 -6.5t8 -3t9.5 -1t11 0t9 0.5q11 0 11 -29q0 -31 -9 -31q-4 0 -12 0.5t-12 0.5t-9 -1t-7 -4t-2 -8v-220q0 -5 3 -8t8.5 -4t10 -1.5t12 0t9.5 0.5q8 0 8 -31q0 -29 -9 -29 q-3 0 -11 0.5t-12 0t-9.5 -1t-7.5 -3t-2 -6.5v-49q0 -8 -31 -8q-30 0 -30 7v47q0 10 -3.5 11.5t-19.5 1.5h-13q-14 0 -14 28q0 13 0.5 18.5t3.5 9.5t9 4q20 0 28.5 3t8.5 13v214q0 4 -1 6.5t-3 4t-4 2.5t-6 1.5t-6.5 0.5h-8h-8.5z" />
<glyph unicode="&#xe1;" horiz-adv-x="138" d="M20 383q0 24 12.5 39.5t37.5 13.5q48 -4 48 -53q1 -25 -8.5 -39t-39.5 -16q-24 -3 -37.5 14t-12.5 41z" />
<glyph unicode="&#xe2;" horiz-adv-x="158" d="M76 118q26 0 41.5 -15t15.5 -39q0 -40 -11 -68q-8 -22 -17 -40t-25.5 -36t-31.5 -15q-6 1 -7.5 7.5t0.5 17t5 20.5t7 21.5t5 16.5q2 8 -0.5 12.5t-9 7.5t-8.5 5q-15 12 -15 40q0 29 13 47.5t38 17.5z" />
<glyph unicode="&#xe3;" horiz-adv-x="286" d="M203 118q26 0 41.5 -15t16.5 -39q0 -40 -11 -68q-8 -21 -17.5 -39.5t-25.5 -36.5t-31 -15q-6 1 -7.5 7.5t0.5 17t5 20.5l6.5 21.5t4.5 16.5q2 8 0 12t-8.5 8t-8.5 5q-16 13 -16 40q0 29 13 47.5t38 17.5zM76 118q26 0 41.5 -15t15.5 -39q0 -40 -11 -68q-8 -22 -17 -40 t-25.5 -36t-31.5 -15q-6 1 -7.5 7.5t0.5 17t5 20.5t7 21.5t5 16.5q2 8 -0.5 12.5t-9 7.5t-8.5 5q-15 12 -15 40q0 29 13 47.5t38 17.5z" />
<glyph unicode="&#xe4;" horiz-adv-x="574" d="M103 16q-6 -16 -41 -16q-8 0 -13.5 0.5t-11 2t-7.5 5t0 8.5l245 667q4 16 35 16q17 0 28.5 -4.5t8.5 -14.5zM360 72q0 -31 -20.5 -51.5t-52.5 -20.5q-31 0 -51.5 21t-20.5 51v107q0 30 20.5 50.5t51.5 20.5q32 0 52.5 -20t20.5 -51v-107zM174 522q0 -32 -20.5 -52.5 t-52.5 -20.5q-31 0 -52 21t-21 52v106q0 31 21 51.5t52 20.5q32 0 52.5 -20t20.5 -52v-106zM544 72q0 -31 -20.5 -51.5t-52.5 -20.5q-31 0 -51.5 21t-20.5 51v107q0 30 20.5 50.5t51.5 20.5q32 0 52.5 -20t20.5 -51v-107zM117 618q0 27 -16 27q-17 0 -17 -27v-85 q0 -27 17 -27q16 0 16 27v85zM304 169q0 27 -17 27q-16 0 -16 -27v-86q0 -27 16 -27q17 0 17 27v86zM488 169q0 27 -17 27q-16 0 -16 -27v-86q0 -27 16 -27q17 0 17 27v86z" />
<glyph unicode="&#xe5;" horiz-adv-x="333" d="M119 10q-1 -10 -48 -10h-7q-50 0 -49 9l96 677q2 15 52 15q52 0 54 -18l101 -673q1 -4 -2.5 -6t-12.5 -3t-15 -1h-19h-6q-41 0 -47 5q-2 3 -3 7q-4 27 -10 74t-10 75q0 2 -1 3.5t-2.5 2.5t-3 1.5t-4.5 0.5h-5h-6.5h-6.5h-8q-21 0 -22 -8q-10 -95 -15 -151zM143 252 q-1 -5 3.5 -6.5t16.5 -1.5h6h7t5 0.5t3 2t1 4.5q-10 154 -13 195q0 27 -9 27q-7 0 -7 -29q-2 -39 -6.5 -99.5t-6.5 -92.5zM280 762q0 -6 -9 -22.5t-10 -19.5q-2 -8 -7.5 -11t-16.5 6q-66 64 -73 64t-73 -63q-19 -18 -24 5q-1 3 -11 21t-9 24q0 2 2 5t7 7.5t10.5 8.5l14 10.5 t14.5 11.5q6 4 16.5 13t16.5 13.5l13.5 10t13 8t9.5 2.5q11 0 71 -52q6 -5 14 -11t12.5 -10l9 -8t7 -7t2.5 -6z" />
<glyph unicode="&#xe6;" horiz-adv-x="310" d="M46 4q-6 5 -6 34v632q0 13 7 22q6 8 23 8h207q9 0 10.5 -8t1.5 -39q0 -51 -13 -51h-100q-19 0 -23 -5q-5 -7 -5 -19v-132q0 -22 6 -26t22 -4h48q9 0 11 -8t2 -42q0 -48 -13 -48h-45q-19 0 -25 -3q-7 -5 -7 -29v-149q0 -32 5 -35q7 -4 30 -4h95q9 0 11 -7.5t2 -40.5 q0 -34 -2 -42t-10 -8h-192q-35 0 -40 4zM276 767q0 -6 -9 -22.5t-10 -19.5q-2 -8 -7.5 -11t-16.5 6q-66 64 -73 64t-73 -63q-19 -18 -24 5q-1 3 -11 21t-9 24q0 2 2 5t7 7.5t10.5 8.5l14 10.5t14.5 11.5q6 4 16.5 13t16.5 13.5l13.5 10t13 8t9.5 2.5q11 0 71 -52 q6 -5 14 -11t12.5 -10l9 -8t7 -7t2.5 -6z" />
<glyph unicode="&#xe7;" horiz-adv-x="333" d="M119 10q-1 -10 -48 -10h-7q-50 0 -49 9l96 677q2 15 52 15q52 0 54 -18l101 -673q1 -4 -2.5 -6t-12.5 -3t-15 -1h-19h-6q-41 0 -47 5q-2 3 -3 7q-4 27 -10 74t-10 75q0 2 -1 3.5t-2.5 2.5t-3 1.5t-4.5 0.5h-5h-6.5h-6.5h-8q-21 0 -22 -8q-10 -95 -15 -151zM143 252 q-1 -5 3.5 -6.5t16.5 -1.5h6h7t5 0.5t3 2t1 4.5q-10 154 -13 195q0 27 -9 27q-7 0 -7 -29q-2 -39 -6.5 -99.5t-6.5 -92.5zM106 813q41 16 98 43q29 13 34 0q17 -38 18 -39q10 -14 -13 -28l-56.5 -25l-76.5 -35q-21 -9 -23 7q-4 18 -16 43q-4 7 6 16.5t29 17.5z" />
<glyph unicode="&#xe8;" horiz-adv-x="310" d="M46 4q-6 5 -6 34v632q0 13 7 22q6 8 23 8h207q9 0 10.5 -8t1.5 -39q0 -51 -13 -51h-100q-19 0 -23 -5q-5 -7 -5 -19v-132q0 -22 6 -26t22 -4h48q9 0 11 -8t2 -42q0 -48 -13 -48h-45q-19 0 -25 -3q-7 -5 -7 -29v-149q0 -32 5 -35q7 -4 30 -4h95q9 0 11 -7.5t2 -40.5 q0 -34 -2 -42t-10 -8h-192q-35 0 -40 4zM30 788q-1 24 12.5 41.5t38.5 14.5q30 -3 39.5 -17t8.5 -39q0 -50 -48 -54q-26 -3 -38.5 13t-12.5 41zM190 788q-1 24 12.5 41.5t38.5 14.5q30 -3 39.5 -16.5t9.5 -39.5q0 -50 -49 -54q-26 -3 -38.5 13t-12.5 41z" />
<glyph unicode="&#xe9;" horiz-adv-x="310" d="M46 4q-6 5 -6 34v632q0 13 7 22q6 8 23 8h207q9 0 10.5 -8t1.5 -39q0 -51 -13 -51h-100q-19 0 -23 -5q-5 -7 -5 -19v-132q0 -22 6 -26t22 -4h48q9 0 11 -8t2 -42q0 -48 -13 -48h-45q-19 0 -25 -3q-7 -5 -7 -29v-149q0 -32 5 -35q7 -4 30 -4h95q9 0 11 -7.5t2 -40.5 q0 -34 -2 -42t-10 -8h-192q-35 0 -40 4zM245 779q-13 -32 -15 -43q-4 -16 -24 -7q-1 0 -133 60q-21 16 -12 28q5 7 17 39q5 13 34 0l98 -43q19 -8 29 -17.5t6 -16.5z" />
<glyph unicode="&#xea;" horiz-adv-x="187" d="M147 17q0 -11 -7.5 -13.5t-48.5 -2.5q-37 0 -44 2t-7 12v668q0 11 8 13.5t43 2.5q40 0 48 -2.5t8 -14.5v-665zM36 813q41 16 98 43q29 13 34 0q17 -38 18 -39q10 -14 -13 -28l-56.5 -25l-76.5 -35q-21 -9 -23 7q-4 18 -16 43q-4 7 6 16.5t29 17.5z" />
<glyph unicode="&#xeb;" horiz-adv-x="187" d="M147 17q0 -11 -7.5 -13.5t-48.5 -2.5q-37 0 -44 2t-7 12v668q0 11 8 13.5t43 2.5q40 0 48 -2.5t8 -14.5v-665zM209 762q0 -6 -9 -22.5t-10 -19.5q-2 -8 -7.5 -11t-16.5 6q-66 64 -73 64t-73 -63q-19 -18 -24 5q-1 3 -11 21t-9 24q0 2 2 5t7 7.5t10.5 8.5l14 10.5 t14.5 11.5q6 4 16.5 13t16.5 13.5l13.5 10t13 8t9.5 2.5q11 0 71 -52q6 -5 14 -11t12.5 -10l9 -8t7 -7t2.5 -6z" />
<glyph unicode="&#xec;" horiz-adv-x="187" d="M147 17q0 -11 -7.5 -13.5t-48.5 -2.5q-37 0 -44 2t-7 12v668q0 11 8 13.5t43 2.5q40 0 48 -2.5t8 -14.5v-665zM-38 788q-1 24 12.5 41.5t38.5 14.5q30 -3 39.5 -17t8.5 -39q0 -50 -48 -54q-26 -3 -38.5 13t-12.5 41zM122 788q-1 24 12.5 41.5t38.5 14.5q30 -3 39.5 -16.5 t9.5 -39.5q0 -50 -49 -54q-26 -3 -38.5 13t-12.5 41z" />
<glyph unicode="&#xed;" horiz-adv-x="187" d="M147 17q0 -11 -7.5 -13.5t-48.5 -2.5q-37 0 -44 2t-7 12v668q0 11 8 13.5t43 2.5q40 0 48 -2.5t8 -14.5v-665zM186 779q-13 -32 -15 -43q-4 -16 -24 -7q-1 0 -133 60q-21 16 -12 28q5 7 17 39q5 13 34 0l98 -43q19 -8 29 -17.5t6 -16.5z" />
<glyph unicode="&#xee;" horiz-adv-x="357" d="M321 144q0 -65 -37.5 -104.5t-108.5 -39.5q-67 0 -106 40.5t-39 103.5v413q0 64 41 103.5t104 39.5q65 0 105.5 -39t40.5 -104v-413zM213 537q0 60 -38 60t-38 -60v-371q0 -14 1 -22t4 -18t11.5 -15t21.5 -5q38 0 38 60v371zM122 813q41 16 98 43q29 13 34 0 q17 -38 18 -39q10 -14 -13 -28l-56.5 -25l-76.5 -35q-21 -9 -23 7q-4 18 -16 43q-4 7 6 16.5t29 17.5z" />
<glyph unicode="&#xef;" horiz-adv-x="357" d="M321 144q0 -65 -37.5 -104.5t-108.5 -39.5q-67 0 -106 40.5t-39 103.5v413q0 64 41 103.5t104 39.5q65 0 105.5 -39t40.5 -104v-413zM213 537q0 60 -38 60t-38 -60v-371q0 -14 1 -22t4 -18t11.5 -15t21.5 -5q38 0 38 60v371zM294 762q0 -6 -9 -22.5t-10 -19.5 q-2 -8 -7.5 -11t-16.5 6q-66 64 -73 64t-73 -63q-19 -18 -24 5q-1 3 -11 21t-9 24q0 2 2 5t7 7.5t10.5 8.5l14 10.5t14.5 11.5q6 4 16.5 13t16.5 13.5l13.5 10t13 8t9.5 2.5q11 0 71 -52q6 -5 14 -11t12.5 -10l9 -8t7 -7t2.5 -6z" />
<glyph unicode="&#xf0;" d="M80 417v145q0 9 10.5 18.5t18.5 9.5h42q7 0 7 7v88q0 15 40 15q25 0 32.5 -2.5t7.5 -13.5v-86q0 -8 9 -8h44q10 0 17.5 -8.5t7.5 -21.5v-146q0 -5 0.5 -7.5t3 -4t8.5 -1.5h43q11 0 13 -6t2 -36q0 -33 -5 -36q-2 -2 -8 -2h-44q-9 0 -11 -2.5t-2 -10.5v-167q0 -31 -22 -31 h-49q-7 0 -7 -9v-86q0 -11 -6 -13t-34 -2q-35 0 -38 5q-2 2 -2 8v90q0 7 -6 7h-46q-11 0 -18.5 8.5t-7.5 18.5v171v6.5t-1.5 3.5t-4 2.5t-7.5 0.5h-42q-10 0 -12.5 6.5t-2.5 31.5q0 29 2.5 35.5t13.5 6.5h42q9 0 10.5 3.5t1.5 12.5zM218 186q17 0 17 17v295q0 15 -15 15h-44 q-15 0 -15 -15v-295q0 -17 17 -17h40z" />
<glyph unicode="&#xf1;" horiz-adv-x="357" d="M321 144q0 -65 -37.5 -104.5t-108.5 -39.5q-67 0 -106 40.5t-39 103.5v413q0 64 41 103.5t104 39.5q65 0 105.5 -39t40.5 -104v-413zM213 537q0 60 -38 60t-38 -60v-371q0 -14 1 -22t4 -18t11.5 -15t21.5 -5q38 0 38 60v371zM270 779q-13 -32 -15 -43q-4 -16 -24 -7 q-1 0 -133 60q-21 16 -12 28q5 7 17 39q5 13 34 0l98 -43q19 -8 29 -17.5t6 -16.5z" />
<glyph unicode="&#xf2;" horiz-adv-x="357" d="M324 685v-545q0 -63 -38.5 -101.5t-107.5 -38.5q-66 0 -105.5 41t-39.5 98v544q0 12 9 14.5t47 2.5q31 0 41 -3t10 -14v-521q0 -56 38 -56t38 56v522q0 11 8.5 13.5t41.5 2.5q38 0 48 -3t10 -12zM122 813q41 16 98 43q29 13 34 0q17 -38 18 -39q10 -14 -13 -28l-56.5 -25 l-76.5 -35q-21 -9 -23 7q-4 18 -16 43q-4 7 6 16.5t29 17.5z" />
<glyph unicode="&#xf3;" horiz-adv-x="357" d="M324 685v-545q0 -63 -38.5 -101.5t-107.5 -38.5q-66 0 -105.5 41t-39.5 98v544q0 12 9 14.5t47 2.5q31 0 41 -3t10 -14v-521q0 -56 38 -56t38 56v522q0 11 8.5 13.5t41.5 2.5q38 0 48 -3t10 -12zM296 767q0 -6 -9 -22.5t-10 -19.5q-2 -8 -7.5 -11t-16.5 6q-66 64 -73 64 t-73 -63q-19 -18 -24 5q-1 3 -11 21t-9 24q0 2 2 5t7 7.5t10.5 8.5l14 10.5t14.5 11.5q6 4 16.5 13t16.5 13.5l13.5 10t13 8t9.5 2.5q11 0 71 -52q6 -5 14 -11t12.5 -10l9 -8t7 -7t2.5 -6z" />
<glyph unicode="&#xf4;" horiz-adv-x="357" d="M324 685v-545q0 -63 -38.5 -101.5t-107.5 -38.5q-66 0 -105.5 41t-39.5 98v544q0 12 9 14.5t47 2.5q31 0 41 -3t10 -14v-521q0 -56 38 -56t38 56v522q0 11 8.5 13.5t41.5 2.5q38 0 48 -3t10 -12zM268 779q-13 -32 -15 -43q-4 -16 -24 -7q-1 0 -133 60q-21 16 -12 28 q5 7 17 39q5 13 34 0l98 -43q19 -8 29 -17.5t6 -16.5z" />
<glyph unicode="&#xf5;" horiz-adv-x="177" d="M142 18q0 -13 -7.5 -15.5t-48.5 -2.5q-38 0 -44.5 2t-6.5 14v448q0 12 8 14.5t43 2.5q40 0 48 -2.5t8 -15.5v-445z" />
<glyph unicode="&#xf6;" horiz-adv-x="341" d="M286 572q0 -6 -9 -22.5t-10 -19.5q-2 -8 -7.5 -11t-16.5 6q-66 64 -73 64t-73 -63q-19 -18 -24 5q-1 3 -11 21t-9 24q0 2 2 5t7 7.5t10.5 8.5l14 10.5t14.5 11.5q6 4 16.5 13t16.5 13.5l13.5 10t13 8t9.5 2.5q11 0 71 -52q6 -5 14 -11t12.5 -10l9 -8t7 -7t2.5 -6z" />
<glyph unicode="&#xf7;" horiz-adv-x="341" d="M168 550q-19 19 -30 19q-4 0 -7.5 -1.5t-6 -3.5t-10 -9l-15.5 -14q-8 -6 -15 -4t-9 9l-19 39q-6 10 38 40q30 20 43 20q24 0 36 -11l9.5 -9.5l8 -8t5.5 -4t7 -1.5q8 0 37 29q9 8 15.5 5.5t8.5 -10.5q1 -3 19 -39v-6t-5 -7t-9 -8l-11.5 -9l-12.5 -10q-22 -18 -41 -18 q-24 0 -36 12z" />
<glyph unicode="&#xf8;" horiz-adv-x="341" d="M286 516l-38 -2q-39 -2 -78 -2q-36 0 -76 -1t-41 -1q-5 0 -6 19t2 38t8 19q2 0 45 1.5t68 1.5q26 0 68.5 -0.5t48.5 -0.5q5 0 6.5 -18t-0.5 -36t-7 -18z" />
<glyph unicode="&#xf9;" horiz-adv-x="341" d="M286 606q-5 -10 -13 -22t-23 -30.5t-36 -30t-44 -11.5q-57 0 -117 90q-6 9 22 47q3 3 17 -11.5t36.5 -31.5t41.5 -17t40.5 18t35 33t16.5 11q28 -38 24 -45z" />
<glyph unicode="&#xfa;" horiz-adv-x="177" d="M87 678q24 -1 40 -19t18 -44q1 -18 1 -32.5t-14 -24t-45 -12.5q-27 -4 -45.5 19.5t-15.5 52.5t15.5 45t45.5 15z" />
<glyph unicode="&#xfb;" horiz-adv-x="175" d="M92 529q-30 -4 -53 18.5t-19 53.5q5 39 19.5 50.5t50.5 12.5q27 1 46.5 -19.5t18.5 -47.5q1 -33 -14 -48.5t-49 -19.5zM120 596q2 14 -7 24t-23 10q-19 -1 -25.5 -7t-8.5 -26q-3 -15 9 -25t26 -8q15 2 22 9t7 23z" />
<glyph unicode="&#xfc;" horiz-adv-x="344" d="M207 41v-68q0 -38 -27 -66t-65 -28q-4 0 -4 25q0 32 3 32q14 0 26 10.5t12 25.5v68q0 8 28 8q27 0 27 -7z" />
<glyph unicode="&#xfd;" horiz-adv-x="341" d="M34 607l83 67q25 20 33 9q3 -3 13 -16.5t14 -16.5q14 -11 -5 -30l-48 -39l-65 -54q-18 -15 -24 1q-5 11 -26 38q-12 12 25 41zM204 607l83 67q25 20 33 9q3 -3 13 -16.5t14 -16.5q14 -11 -5 -30l-48 -39l-65 -54q-18 -15 -24 1q-5 11 -26 38q-12 12 25 41z" />
<glyph unicode="&#xfe;" horiz-adv-x="344" d="M101 41q0 7 27 7q28 0 28 -8v-68q0 -15 12 -25.5t26 -10.5q3 0 3 -32q0 -25 -4 -25q-38 0 -65 28t-27 66v68z" />
<glyph unicode="&#xff;" horiz-adv-x="341" d="M286 606q0 -5 -5 -9.5t-19 -15.5t-21 -17q-60 -52 -71 -52q-4 0 -9.5 2.5t-13 8l-13.5 10t-16.5 13.5t-16.5 13q-6 5 -14.5 11.5l-14 10.5t-10.5 8.5t-7 7.5t-2 5q-1 6 9 24t11 21q5 23 24 5q66 -63 73 -63t73 64q11 9 16.5 6t7.5 -11q1 -3 10 -19.5t9 -22.5z" />
<glyph unicode="&#x152;" horiz-adv-x="180" d="M139 566q0 -28 -16 -43t-43 -15q-25 0 -41 15.5t-16 42.5v77q0 26 16 42t41 16q26 0 42.5 -16t16.5 -42v-77zM29 441q-9 0 -9 23q0 20 10 20h107q4 0 4 -21q0 -22 -3 -22h-109zM93 634q0 22 -13 22t-13 -22v-59q0 -21 13 -21t13 21v59z" />
<glyph unicode="&#x153;" d="M80 417v145q0 9 10.5 18.5t18.5 9.5h42q7 0 7 7v88q0 15 40 15q25 0 32.5 -2.5t7.5 -13.5v-86q0 -8 9 -8h44q10 0 17.5 -8.5t7.5 -21.5v-146q0 -5 0.5 -7.5t3 -4t8.5 -1.5h43q11 0 13 -6t2 -36q0 -33 -5 -36q-2 -2 -8 -2h-44q-9 0 -11 -2.5t-2 -10.5v-167q0 -31 -22 -31 h-49q-7 0 -7 -9v-86q0 -11 -6 -13t-34 -2q-35 0 -38 5q-2 2 -2 8v90q0 7 -6 7h-46q-11 0 -18.5 8.5t-7.5 18.5v171v6.5t-1.5 3.5t-4 2.5t-7.5 0.5h-42q-10 0 -12.5 6.5t-2.5 31.5q0 29 2.5 35.5t13.5 6.5h42q9 0 10.5 3.5t1.5 12.5zM218 186q17 0 17 17v295q0 15 -15 15h-44 q-15 0 -15 -15v-295q0 -17 17 -17h40z" />
<glyph unicode="&#x160;" horiz-adv-x="409" d="M282 597q-9 0 -11 -5t-2 -23v-547q0 -16 -6.5 -19t-31.5 -3q-18 0 -23 0.5t-8 3.5t-3 12v213q0 31 -22 31q-57 0 -103.5 40t-46.5 113v136q0 70 46.5 110.5t100.5 40.5h167q19 0 24 -6q6 -7 6 -25v-651q0 -13 -6.5 -15.5t-28.5 -2.5q-33 0 -35 4q-2 3 -2 12v553 q0 19 -2.5 23.5t-12.5 4.5zM133 432q0 -27 13 -47t29 -20t19 3t3 19v190q0 12 -3 15t-15 3q-20 0 -33 -19.5t-13 -47.5v-96z" />
<glyph unicode="&#x161;" horiz-adv-x="554" d="M277 701q101 0 172.5 -71.5t71.5 -172.5q0 -100 -71.5 -171t-172.5 -71t-172 71t-71 171q0 101 71 172.5t172 71.5zM88 459q0 -79 56 -134t135 -55t134.5 55t55.5 134t-55.5 134.5t-134.5 55.5t-135 -55.5t-56 -134.5zM246 432v-99q0 -6 -25 -6q-22 0 -22 6v256q0 7 4 10 q6 2 17 2h63q34 0 54.5 -14.5t25 -28t4.5 -27.5v-14q0 -20 -10.5 -32.5t-20.5 -14.5l-11 -3l11 -2q10 -2 20.5 -11.5t10.5 -28.5v-92q0 -6 -24 -6t-24 6v84q0 9 -9.5 17t-26.5 8q-37 0 -37 -10zM267 557h-21v-13v-49q0 -6 3 -7q4 -1 20 -1q27 0 36.5 5t9.5 20v17 q0 17 -10 22.5t-38 5.5z" />
<glyph unicode="&#x178;" horiz-adv-x="526" d="M214 311q0 73 -44 73t-44 -51q0 -14 -50 -14q-12 0 -18 0.5t-14 2t-11.5 5.5t-3.5 10q0 73 41 108.5t93 35.5q27 0 45.5 -6t26 -12.5l15 -12.5t13.5 -6q8 0 17.5 9t27.5 18.5t48 9.5q64 0 104.5 -39t40.5 -104v-104v-6.5t-2 -4.5t-6 -3.5t-12 -0.5h-156q-14 0 -14 -16 v-54q0 -43 43 -43q42 0 42 46q0 6 50 6q36 0 45.5 -2t9.5 -12q0 -70 -39.5 -107t-105.5 -37q-31 0 -50 9t-28 18.5t-15 9.5t-13 -6l-15 -12.5t-29.5 -12.5t-51.5 -6q-57 0 -93 42.5t-36 113.5q0 67 35 103.5t90 36.5q21 0 37.5 -9t21.5 -14.5t5 -1.5v40zM353 377 q-20 0 -30.5 -13.5t-10.5 -31.5v-25q0 -15 40 -15q42 0 42 13v27q0 19 -10.5 32t-30.5 13zM163 211q-18 0 -31 -14.5t-13 -40.5q0 -30 12.5 -45t31.5 -15q31 0 40 8.5t9 30.5v47q0 6 -3 11.5t-14.5 11.5t-31.5 6z" />
<glyph unicode="&#x17d;" horiz-adv-x="339" d="M15 685q-1 5 3.5 8t13.5 4t16 1.5t15 0.5q56 0 59 -16q13 -80 44 -246q0 -9 6 -9q2 0 5 10q26 141 42 245q2 16 53 16q12 0 20 -0.5t16.5 -1.5t12.5 -4t3 -8l-71 -274q-3 -11 7 -11q45 0 45 -16q0 -34 -1 -38q-1 -6 -2 -8t-6.5 -5t-14.5 -3h-37q-11 0 -12 -8 q-2 -8 -4 -26t-2 -33q0 -7 2 -8.5t12 -1.5q31 0 46 -2t17.5 -4.5t2.5 -9.5q0 -33 2 -40t-1.5 -11.5t-17.5 -4.5h-56q-8 0 -8 -9v-164q0 -8 -55 -8q-53 0 -53 11v159q0 8 -1.5 10t-7.5 2h-51q-7 0 -16 4.5t-7 14.5q2 11 0 37q-1 9 6 12t24 3h45q7 0 7 10q0 13 -3 29 q-1 11 -5 30q-1 9 -11 9h-40q-7 0 -16 4.5t-7 14.5t0 35q-1 9 9 12t41 3q8 0 4 14z" />
<glyph unicode="&#x17e;" d="M80 417v145q0 9 10.5 18.5t18.5 9.5h42q7 0 7 7v88q0 15 40 15q25 0 32.5 -2.5t7.5 -13.5v-86q0 -8 9 -8h44q10 0 17.5 -8.5t7.5 -21.5v-146q0 -5 0.5 -7.5t3 -4t8.5 -1.5h43q11 0 13 -6t2 -36q0 -33 -5 -36q-2 -2 -8 -2h-44q-9 0 -11 -2.5t-2 -10.5v-167q0 -31 -22 -31 h-49q-7 0 -7 -9v-86q0 -11 -6 -13t-34 -2q-35 0 -38 5q-2 2 -2 8v90q0 7 -6 7h-46q-11 0 -18.5 8.5t-7.5 18.5v171v6.5t-1.5 3.5t-4 2.5t-7.5 0.5h-42q-10 0 -12.5 6.5t-2.5 31.5q0 29 2.5 35.5t13.5 6.5h42q9 0 10.5 3.5t1.5 12.5zM218 186q17 0 17 17v295q0 15 -15 15h-44 q-15 0 -15 -15v-295q0 -17 17 -17h40z" />
<glyph unicode="&#x2000;" horiz-adv-x="434" />
<glyph unicode="&#x2001;" horiz-adv-x="869" />
<glyph unicode="&#x2002;" horiz-adv-x="434" />
<glyph unicode="&#x2003;" horiz-adv-x="869" />
<glyph unicode="&#x2004;" horiz-adv-x="289" />
<glyph unicode="&#x2005;" horiz-adv-x="217" />
<glyph unicode="&#x2006;" horiz-adv-x="144" />
<glyph unicode="&#x2007;" horiz-adv-x="144" />
<glyph unicode="&#x2008;" horiz-adv-x="108" />
<glyph unicode="&#x2009;" horiz-adv-x="173" />
<glyph unicode="&#x200a;" horiz-adv-x="48" />
<glyph unicode="&#x2010;" horiz-adv-x="226" d="M206 275q0 -35 3 -46q2 -7 -1.5 -11.5t-17.5 -4.5q-36 0 -78.5 0.5t-68.5 0.5q-7 0 -16 4.5t-7 14.5q3 13 0 43q-1 9 6.5 12t24.5 3h109q46 2 46 -16z" />
<glyph unicode="&#x2011;" horiz-adv-x="226" d="M206 275q0 -35 3 -46q2 -7 -1.5 -11.5t-17.5 -4.5q-36 0 -78.5 0.5t-68.5 0.5q-7 0 -16 4.5t-7 14.5q3 13 0 43q-1 9 6.5 12t24.5 3h109q46 2 46 -16z" />
<glyph unicode="&#x2012;" horiz-adv-x="226" d="M206 275q0 -35 3 -46q2 -7 -1.5 -11.5t-17.5 -4.5q-36 0 -78.5 0.5t-68.5 0.5q-7 0 -16 4.5t-7 14.5q3 13 0 43q-1 9 6.5 12t24.5 3h109q46 2 46 -16z" />
<glyph unicode="&#x2013;" horiz-adv-x="534" d="M509 275q0 -35 8 -46q5 -7 -4 -11.5t-46 -4.5q-95 0 -206.5 0.5t-180.5 0.5q-18 0 -41.5 4.5t-18.5 14.5q8 13 0 43q-3 9 17 12t64 3h287q121 2 121 -16z" />
<glyph unicode="&#x2014;" horiz-adv-x="1034" d="M999 275q0 -35 16 -46q11 -7 -7.5 -11.5t-92.5 -4.5q-189 0 -412.5 0.5t-360.5 0.5q-37 0 -84.5 4.5t-36.5 14.5q16 13 0 43q-5 9 34.5 12t128.5 3h573q242 2 242 -16z" />
<glyph unicode="&#x202f;" horiz-adv-x="173" />
<glyph unicode="&#x205f;" horiz-adv-x="217" />
<glyph unicode="&#x20ac;" horiz-adv-x="352" d="M315 281q0 -25 -13.5 -48t-31.5 -33q-9 -2 -4 -9q5 -9 21.5 -29.5t24 -40t7.5 -52.5q0 -70 -42.5 -104.5t-98.5 -34.5q-57 0 -101 35t-44 105v48q0 13 54 13q49 0 49 -11v-43q0 -18 10.5 -32.5t32.5 -14.5q44 0 44 48q0 27 -19.5 50t-46.5 41l-54.5 38t-47 51t-19.5 71 q0 58 52 77q6 2 -1 9q-1 1 -9 8.5t-14.5 16.5t-14 24t-12 39.5t-4.5 54.5q0 62 39.5 102t101.5 40t100.5 -39t38.5 -100v-49q0 -9 -57 -9h-7h-18t-10.5 1t-7 3t-1.5 6v33q0 57 -38 57q-41 0 -41 -54q0 -30 13.5 -55.5t33.5 -41.5l44 -34.5l44 -35t33.5 -43t13.5 -58.5z M208 245q17 4 17 41q1 41 -62 81q-11 5 -16 4q-17 -4 -19 -37q0 -39 66 -86q10 -4 14 -3z" />
<glyph unicode="&#xe000;" horiz-adv-x="480" d="M0 480h480v-480h-480v480z" />
</font>
</defs>
</svg>
